<?xml version='1.0' encoding='utf-8'?>
<svg xmlns="http://www.w3.org/2000/svg" xmlns:ns1="http://sodipodi.sourceforge.net/DTD/sodipodi-0.dtd" xmlns:ns2="http://www.inkscape.org/namespaces/inkscape" version="1.1" viewBox="0 -6652.8 9696.0 8524.8"><g transform="translate(384.0, 912.0) rotate(23.0) scale(1.0)"><ns1:namedview id="namedview1" pagecolor="#ffffff" bordercolor="#000000" borderopacity="0.25" ns2:showpageshadow="2" ns2:pageopacity="0.0" ns2:pagecheckerboard="0" ns2:deskcolor="#d1d1d1">
    <ns2:page x="0" y="0" ns2:label="1" id="page1" width="960" height="960" margin="82.6856 129.62399 82.685333" bleed="12" />
  </ns1:namedview>
  <g id="layer-MC0" ns2:groupmode="layer" ns2:label="Layer 1" class="track-1">
    <path id="path1" d="m 0,0 c -15.766,11.505 -122.424,12.754 -185.145,-111.441 -62.686,-124.126 -58.459,-331.207 13.427,-417.801 38.099,-45.846 56.135,-57.353 92.436,-55.55 45.394,2.324 87.113,40.82 94.149,94.322 7.466,56.658 -71.261,123.365 -69.91,239.102 0.969,86.979 56.206,153.751 68.022,194.47 C 22.351,-24.534 15.751,-11.574 0,0" style="fill:currentColor;fill-opacity:1;fill-rule:nonzero;stroke:none" transform="matrix(1.3333333,0,0,-1.3333333,435.10893,89.244133)" clip-path="url(#clipPath2)" />
    <path id="path3" d="m 0,0 c 16.007,11.156 122.703,9.911 182.565,-115.603 59.879,-125.542 50.919,-332.453 -22.906,-417.42 -39.089,-44.942 -57.366,-56.103 -93.649,-53.434 -45.359,3.36 -86.179,42.762 -92.002,96.402 -6.167,56.761 74.037,121.735 75.335,237.508 0.987,86.975 -52.721,154.93 -63.622,195.925 C -22.905,-24.052 -16.01,-11.231 0,0" style="fill:currentColor;fill-opacity:1;fill-rule:nonzero;stroke:none" transform="matrix(1.3333333,0,0,-1.3333333,534.426,94.878)" clip-path="url(#clipPath4)" />
  </g>
</g><g transform="translate(1440.0, 643.2) rotate(11.0) scale(1.0)"><g transform="translate(960.0,0) scale(-1,1)"><ns1:namedview id="namedview1" pagecolor="#ffffff" bordercolor="#000000" borderopacity="0.25" ns2:showpageshadow="2" ns2:pageopacity="0.0" ns2:pagecheckerboard="0" ns2:deskcolor="#d1d1d1">
    <ns2:page x="0" y="0" ns2:label="1" id="page1" width="960" height="960" margin="82.6856 129.62399 82.685333" bleed="12" />
  </ns1:namedview>
  <g id="layer-MC0" ns2:groupmode="layer" ns2:label="Layer 1" class="track-2">
    <path id="path1" d="m 0,0 c -15.766,11.505 -122.424,12.754 -185.145,-111.441 -62.686,-124.126 -58.459,-331.207 13.427,-417.801 38.099,-45.846 56.135,-57.353 92.436,-55.55 45.394,2.324 87.113,40.82 94.149,94.322 7.466,56.658 -71.261,123.365 -69.91,239.102 0.969,86.979 56.206,153.751 68.022,194.47 C 22.351,-24.534 15.751,-11.574 0,0" style="fill:currentColor;fill-opacity:1;fill-rule:nonzero;stroke:none" transform="matrix(1.3333333,0,0,-1.3333333,435.10893,89.244133)" clip-path="url(#clipPath2)" />
    <path id="path3" d="m 0,0 c 16.007,11.156 122.703,9.911 182.565,-115.603 59.879,-125.542 50.919,-332.453 -22.906,-417.42 -39.089,-44.942 -57.366,-56.103 -93.649,-53.434 -45.359,3.36 -86.179,42.762 -92.002,96.402 -6.167,56.761 74.037,121.735 75.335,237.508 0.987,86.975 -52.721,154.93 -63.622,195.925 C -22.905,-24.052 -16.01,-11.231 0,0" style="fill:currentColor;fill-opacity:1;fill-rule:nonzero;stroke:none" transform="matrix(1.3333333,0,0,-1.3333333,534.426,94.878)" clip-path="url(#clipPath4)" />
  </g>
</g></g><g transform="translate(2208.0, -739.2) rotate(23.6) scale(0.98)"><ns1:namedview id="namedview1" pagecolor="#ffffff" bordercolor="#000000" borderopacity="0.25" ns2:showpageshadow="2" ns2:pageopacity="0.0" ns2:pagecheckerboard="0" ns2:deskcolor="#d1d1d1">
    <ns2:page x="0" y="0" ns2:label="1" id="page1" width="960" height="960" margin="82.6856 129.62399 82.685333" bleed="12" />
  </ns1:namedview>
  <g id="layer-MC0" ns2:groupmode="layer" ns2:label="Layer 1" class="track-3">
    <path id="path1" d="m 0,0 c -15.766,11.505 -122.424,12.754 -185.145,-111.441 -62.686,-124.126 -58.459,-331.207 13.427,-417.801 38.099,-45.846 56.135,-57.353 92.436,-55.55 45.394,2.324 87.113,40.82 94.149,94.322 7.466,56.658 -71.261,123.365 -69.91,239.102 0.969,86.979 56.206,153.751 68.022,194.47 C 22.351,-24.534 15.751,-11.574 0,0" style="fill:currentColor;fill-opacity:1;fill-rule:nonzero;stroke:none" transform="matrix(1.3333333,0,0,-1.3333333,435.10893,89.244133)" clip-path="url(#clipPath2)" />
    <path id="path3" d="m 0,0 c 16.007,11.156 122.703,9.911 182.565,-115.603 59.879,-125.542 50.919,-332.453 -22.906,-417.42 -39.089,-44.942 -57.366,-56.103 -93.649,-53.434 -45.359,3.36 -86.179,42.762 -92.002,96.402 -6.167,56.761 74.037,121.735 75.335,237.508 0.987,86.975 -52.721,154.93 -63.622,195.925 C -22.905,-24.052 -16.01,-11.231 0,0" style="fill:currentColor;fill-opacity:1;fill-rule:nonzero;stroke:none" transform="matrix(1.3333333,0,0,-1.3333333,534.426,94.878)" clip-path="url(#clipPath4)" />
  </g>
</g><g transform="translate(3264.0, -1008.0) rotate(11.6) scale(0.98)"><g transform="translate(960.0,0) scale(-1,1)"><ns1:namedview id="namedview1" pagecolor="#ffffff" bordercolor="#000000" borderopacity="0.25" ns2:showpageshadow="2" ns2:pageopacity="0.0" ns2:pagecheckerboard="0" ns2:deskcolor="#d1d1d1">
    <ns2:page x="0" y="0" ns2:label="1" id="page1" width="960" height="960" margin="82.6856 129.62399 82.685333" bleed="12" />
  </ns1:namedview>
  <g id="layer-MC0" ns2:groupmode="layer" ns2:label="Layer 1" class="track-4">
    <path id="path1" d="m 0,0 c -15.766,11.505 -122.424,12.754 -185.145,-111.441 -62.686,-124.126 -58.459,-331.207 13.427,-417.801 38.099,-45.846 56.135,-57.353 92.436,-55.55 45.394,2.324 87.113,40.82 94.149,94.322 7.466,56.658 -71.261,123.365 -69.91,239.102 0.969,86.979 56.206,153.751 68.022,194.47 C 22.351,-24.534 15.751,-11.574 0,0" style="fill:currentColor;fill-opacity:1;fill-rule:nonzero;stroke:none" transform="matrix(1.3333333,0,0,-1.3333333,435.10893,89.244133)" clip-path="url(#clipPath2)" />
    <path id="path3" d="m 0,0 c 16.007,11.156 122.703,9.911 182.565,-115.603 59.879,-125.542 50.919,-332.453 -22.906,-417.42 -39.089,-44.942 -57.366,-56.103 -93.649,-53.434 -45.359,3.36 -86.179,42.762 -92.002,96.402 -6.167,56.761 74.037,121.735 75.335,237.508 0.987,86.975 -52.721,154.93 -63.622,195.925 C -22.905,-24.052 -16.01,-11.231 0,0" style="fill:currentColor;fill-opacity:1;fill-rule:nonzero;stroke:none" transform="matrix(1.3333333,0,0,-1.3333333,534.426,94.878)" clip-path="url(#clipPath4)" />
  </g>
</g></g><g transform="translate(4032.0, -2083.2) rotate(22.6) scale(1.0)"><ns1:namedview id="namedview1" pagecolor="#ffffff" bordercolor="#000000" borderopacity="0.25" ns2:showpageshadow="2" ns2:pageopacity="0.0" ns2:pagecheckerboard="0" ns2:deskcolor="#d1d1d1">
    <ns2:page x="0" y="0" ns2:label="1" id="page1" width="960" height="960" margin="82.6856 129.62399 82.685333" bleed="12" />
  </ns1:namedview>
  <g id="layer-MC0" ns2:groupmode="layer" ns2:label="Layer 1" class="track-5">
    <path id="path1" d="m 0,0 c -15.766,11.505 -122.424,12.754 -185.145,-111.441 -62.686,-124.126 -58.459,-331.207 13.427,-417.801 38.099,-45.846 56.135,-57.353 92.436,-55.55 45.394,2.324 87.113,40.82 94.149,94.322 7.466,56.658 -71.261,123.365 -69.91,239.102 0.969,86.979 56.206,153.751 68.022,194.47 C 22.351,-24.534 15.751,-11.574 0,0" style="fill:currentColor;fill-opacity:1;fill-rule:nonzero;stroke:none" transform="matrix(1.3333333,0,0,-1.3333333,435.10893,89.244133)" clip-path="url(#clipPath2)" />
    <path id="path3" d="m 0,0 c 16.007,11.156 122.703,9.911 182.565,-115.603 59.879,-125.542 50.919,-332.453 -22.906,-417.42 -39.089,-44.942 -57.366,-56.103 -93.649,-53.434 -45.359,3.36 -86.179,42.762 -92.002,96.402 -6.167,56.761 74.037,121.735 75.335,237.508 0.987,86.975 -52.721,154.93 -63.622,195.925 C -22.905,-24.052 -16.01,-11.231 0,0" style="fill:currentColor;fill-opacity:1;fill-rule:nonzero;stroke:none" transform="matrix(1.3333333,0,0,-1.3333333,534.426,94.878)" clip-path="url(#clipPath4)" />
  </g>
</g><g transform="translate(5088.0, -2352.0) rotate(10.6) scale(1.0)"><g transform="translate(960.0,0) scale(-1,1)"><ns1:namedview id="namedview1" pagecolor="#ffffff" bordercolor="#000000" borderopacity="0.25" ns2:showpageshadow="2" ns2:pageopacity="0.0" ns2:pagecheckerboard="0" ns2:deskcolor="#d1d1d1">
    <ns2:page x="0" y="0" ns2:label="1" id="page1" width="960" height="960" margin="82.6856 129.62399 82.685333" bleed="12" />
  </ns1:namedview>
  <g id="layer-MC0" ns2:groupmode="layer" ns2:label="Layer 1" class="track-6">
    <path id="path1" d="m 0,0 c -15.766,11.505 -122.424,12.754 -185.145,-111.441 -62.686,-124.126 -58.459,-331.207 13.427,-417.801 38.099,-45.846 56.135,-57.353 92.436,-55.55 45.394,2.324 87.113,40.82 94.149,94.322 7.466,56.658 -71.261,123.365 -69.91,239.102 0.969,86.979 56.206,153.751 68.022,194.47 C 22.351,-24.534 15.751,-11.574 0,0" style="fill:currentColor;fill-opacity:1;fill-rule:nonzero;stroke:none" transform="matrix(1.3333333,0,0,-1.3333333,435.10893,89.244133)" clip-path="url(#clipPath2)" />
    <path id="path3" d="m 0,0 c 16.007,11.156 122.703,9.911 182.565,-115.603 59.879,-125.542 50.919,-332.453 -22.906,-417.42 -39.089,-44.942 -57.366,-56.103 -93.649,-53.434 -45.359,3.36 -86.179,42.762 -92.002,96.402 -6.167,56.761 74.037,121.735 75.335,237.508 0.987,86.975 -52.721,154.93 -63.622,195.925 C -22.905,-24.052 -16.01,-11.231 0,0" style="fill:currentColor;fill-opacity:1;fill-rule:nonzero;stroke:none" transform="matrix(1.3333333,0,0,-1.3333333,534.426,94.878)" clip-path="url(#clipPath4)" />
  </g>
</g></g><g transform="translate(5856.0, -3849.6) rotate(23.8) scale(0.97)"><ns1:namedview id="namedview1" pagecolor="#ffffff" bordercolor="#000000" borderopacity="0.25" ns2:showpageshadow="2" ns2:pageopacity="0.0" ns2:pagecheckerboard="0" ns2:deskcolor="#d1d1d1">
    <ns2:page x="0" y="0" ns2:label="1" id="page1" width="960" height="960" margin="82.6856 129.62399 82.685333" bleed="12" />
  </ns1:namedview>
  <g id="layer-MC0" ns2:groupmode="layer" ns2:label="Layer 1" class="track-7">
    <path id="path1" d="m 0,0 c -15.766,11.505 -122.424,12.754 -185.145,-111.441 -62.686,-124.126 -58.459,-331.207 13.427,-417.801 38.099,-45.846 56.135,-57.353 92.436,-55.55 45.394,2.324 87.113,40.82 94.149,94.322 7.466,56.658 -71.261,123.365 -69.91,239.102 0.969,86.979 56.206,153.751 68.022,194.47 C 22.351,-24.534 15.751,-11.574 0,0" style="fill:currentColor;fill-opacity:1;fill-rule:nonzero;stroke:none" transform="matrix(1.3333333,0,0,-1.3333333,435.10893,89.244133)" clip-path="url(#clipPath2)" />
    <path id="path3" d="m 0,0 c 16.007,11.156 122.703,9.911 182.565,-115.603 59.879,-125.542 50.919,-332.453 -22.906,-417.42 -39.089,-44.942 -57.366,-56.103 -93.649,-53.434 -45.359,3.36 -86.179,42.762 -92.002,96.402 -6.167,56.761 74.037,121.735 75.335,237.508 0.987,86.975 -52.721,154.93 -63.622,195.925 C -22.905,-24.052 -16.01,-11.231 0,0" style="fill:currentColor;fill-opacity:1;fill-rule:nonzero;stroke:none" transform="matrix(1.3333333,0,0,-1.3333333,534.426,94.878)" clip-path="url(#clipPath4)" />
  </g>
</g><g transform="translate(6912.0, -4118.4) rotate(11.8) scale(0.97)"><g transform="translate(960.0,0) scale(-1,1)"><ns1:namedview id="namedview1" pagecolor="#ffffff" bordercolor="#000000" borderopacity="0.25" ns2:showpageshadow="2" ns2:pageopacity="0.0" ns2:pagecheckerboard="0" ns2:deskcolor="#d1d1d1">
    <ns2:page x="0" y="0" ns2:label="1" id="page1" width="960" height="960" margin="82.6856 129.62399 82.685333" bleed="12" />
  </ns1:namedview>
  <g id="layer-MC0" ns2:groupmode="layer" ns2:label="Layer 1" class="track-8">
    <path id="path1" d="m 0,0 c -15.766,11.505 -122.424,12.754 -185.145,-111.441 -62.686,-124.126 -58.459,-331.207 13.427,-417.801 38.099,-45.846 56.135,-57.353 92.436,-55.55 45.394,2.324 87.113,40.82 94.149,94.322 7.466,56.658 -71.261,123.365 -69.91,239.102 0.969,86.979 56.206,153.751 68.022,194.47 C 22.351,-24.534 15.751,-11.574 0,0" style="fill:currentColor;fill-opacity:1;fill-rule:nonzero;stroke:none" transform="matrix(1.3333333,0,0,-1.3333333,435.10893,89.244133)" clip-path="url(#clipPath2)" />
    <path id="path3" d="m 0,0 c 16.007,11.156 122.703,9.911 182.565,-115.603 59.879,-125.542 50.919,-332.453 -22.906,-417.42 -39.089,-44.942 -57.366,-56.103 -93.649,-53.434 -45.359,3.36 -86.179,42.762 -92.002,96.402 -6.167,56.761 74.037,121.735 75.335,237.508 0.987,86.975 -52.721,154.93 -63.622,195.925 C -22.905,-24.052 -16.01,-11.231 0,0" style="fill:currentColor;fill-opacity:1;fill-rule:nonzero;stroke:none" transform="matrix(1.3333333,0,0,-1.3333333,534.426,94.878)" clip-path="url(#clipPath4)" />
  </g>
</g></g><g transform="translate(7680.0, -5136.0) rotate(22.5) scale(1.0)"><ns1:namedview id="namedview1" pagecolor="#ffffff" bordercolor="#000000" borderopacity="0.25" ns2:showpageshadow="2" ns2:pageopacity="0.0" ns2:pagecheckerboard="0" ns2:deskcolor="#d1d1d1">
    <ns2:page x="0" y="0" ns2:label="1" id="page1" width="960" height="960" margin="82.6856 129.62399 82.685333" bleed="12" />
  </ns1:namedview>
  <g id="layer-MC0" ns2:groupmode="layer" ns2:label="Layer 1" class="track-9">
    <path id="path1" d="m 0,0 c -15.766,11.505 -122.424,12.754 -185.145,-111.441 -62.686,-124.126 -58.459,-331.207 13.427,-417.801 38.099,-45.846 56.135,-57.353 92.436,-55.55 45.394,2.324 87.113,40.82 94.149,94.322 7.466,56.658 -71.261,123.365 -69.91,239.102 0.969,86.979 56.206,153.751 68.022,194.47 C 22.351,-24.534 15.751,-11.574 0,0" style="fill:currentColor;fill-opacity:1;fill-rule:nonzero;stroke:none" transform="matrix(1.3333333,0,0,-1.3333333,435.10893,89.244133)" clip-path="url(#clipPath2)" />
    <path id="path3" d="m 0,0 c 16.007,11.156 122.703,9.911 182.565,-115.603 59.879,-125.542 50.919,-332.453 -22.906,-417.42 -39.089,-44.942 -57.366,-56.103 -93.649,-53.434 -45.359,3.36 -86.179,42.762 -92.002,96.402 -6.167,56.761 74.037,121.735 75.335,237.508 0.987,86.975 -52.721,154.93 -63.622,195.925 C -22.905,-24.052 -16.01,-11.231 0,0" style="fill:currentColor;fill-opacity:1;fill-rule:nonzero;stroke:none" transform="matrix(1.3333333,0,0,-1.3333333,534.426,94.878)" clip-path="url(#clipPath4)" />
  </g>
</g><g transform="translate(8736.0, -5404.8) rotate(10.5) scale(1.0)"><g transform="translate(960.0,0) scale(-1,1)"><ns1:namedview id="namedview1" pagecolor="#ffffff" bordercolor="#000000" borderopacity="0.25" ns2:showpageshadow="2" ns2:pageopacity="0.0" ns2:pagecheckerboard="0" ns2:deskcolor="#d1d1d1">
    <ns2:page x="0" y="0" ns2:label="1" id="page1" width="960" height="960" margin="82.6856 129.62399 82.685333" bleed="12" />
  </ns1:namedview>
  <g id="layer-MC0" ns2:groupmode="layer" ns2:label="Layer 1" class="track-10">
    <path id="path1" d="m 0,0 c -15.766,11.505 -122.424,12.754 -185.145,-111.441 -62.686,-124.126 -58.459,-331.207 13.427,-417.801 38.099,-45.846 56.135,-57.353 92.436,-55.55 45.394,2.324 87.113,40.82 94.149,94.322 7.466,56.658 -71.261,123.365 -69.91,239.102 0.969,86.979 56.206,153.751 68.022,194.47 C 22.351,-24.534 15.751,-11.574 0,0" style="fill:currentColor;fill-opacity:1;fill-rule:nonzero;stroke:none" transform="matrix(1.3333333,0,0,-1.3333333,435.10893,89.244133)" clip-path="url(#clipPath2)" />
    <path id="path3" d="m 0,0 c 16.007,11.156 122.703,9.911 182.565,-115.603 59.879,-125.542 50.919,-332.453 -22.906,-417.42 -39.089,-44.942 -57.366,-56.103 -93.649,-53.434 -45.359,3.36 -86.179,42.762 -92.002,96.402 -6.167,56.761 74.037,121.735 75.335,237.508 0.987,86.975 -52.721,154.93 -63.622,195.925 C -22.905,-24.052 -16.01,-11.231 0,0" style="fill:currentColor;fill-opacity:1;fill-rule:nonzero;stroke:none" transform="matrix(1.3333333,0,0,-1.3333333,534.426,94.878)" clip-path="url(#clipPath4)" />
  </g>
</g></g></svg>
