<?xml version="1.0" encoding="UTF-8"?><svg id="Layer_1" xmlns="http://www.w3.org/2000/svg" viewBox="0 0 3102.17578 501.15625"><defs><style>.cls-1{fill:#fff;}</style></defs><path class="cls-1" d="M0,42.43994h82.62354c63.2085,0,102.03711,24.83203,102.03711,92.55615,0,24.38037-8.57861,52.37305-29.79834,65.91797,40.18262,7.22363,58.24219,47.8584,58.24219,85.33203,0,66.82031-46.95508,96.61914-108.80957,96.61914H0V42.43994ZM66.36963,184.20898h8.12695c32.50732,0,48.30957-9.48145,48.30957-44.69824,0-34.76465-19.86572-43.79443-47.8584-43.79443h-8.57812v88.49268ZM66.36963,329.58887h13.99609c35.66797,0,66.36963-4.51465,66.36963-48.76074s-36.11963-46.05273-69.52979-46.05273h-10.83594v94.81348Z"/><path class="cls-1" d="M320.10889,68.17529c0,20.76855-16.70508,37.47363-37.47412,37.47363s-37.47363-16.70508-37.47363-37.47363c0-20.31738,16.70508-37.47412,37.47363-37.47412s37.47412,17.15674,37.47412,37.47412ZM314.23926,382.86523h-63.20898v-221.68262h63.20898v221.68262Z"/><path class="cls-1" d="M475.87109,213.55566c-9.02979-8.57812-20.76855-15.35059-33.41016-15.35059-10.38428,0-20.76904,8.12695-20.76904,18.96289,0,16.25293,23.02637,20.76855,45.60107,30.70117,23.02588,9.93262,45.60059,25.2832,45.60059,63.66016,0,49.21289-39.73145,78.55957-86.23486,78.55957-29.79883,0-58.69434-13.54492-78.1084-37.02246l28.89551-37.47363c12.19043,13.54492,28.44385,25.73535,46.95508,25.73535,13.99658,0,25.28369-9.48145,25.28369-23.92969,0-19.41406-22.12305-23.92871-44.24609-33.41016s-44.24609-22.57422-44.24609-58.24219c0-41.53711,28.89551-71.7876,70.43262-71.7876,23.47754,0,53.27588,7.22412,71.33594,23.02588l-27.08984,36.57129Z"/><path class="cls-1" d="M764.82324,272.25c0,68.62598-46.95508,117.83887-116.48486,117.83887s-116.48486-49.21289-116.48486-117.83887c0-69.0791,47.40625-118.2915,116.48486-118.2915s116.48486,49.2124,116.48486,118.2915ZM595.96533,272.25c0,29.79785,19.86572,61.85449,52.37305,61.85449s52.37305-32.05664,52.37305-61.85449c0-30.70215-19.86572-62.30664-52.37305-62.30664s-52.37305,31.60449-52.37305,62.30664Z"/><path class="cls-1" d="M857.82959,181.5h.90283c13.09326-19.86621,35.21631-27.5415,57.79102-27.5415,59.59717,0,76.75391,41.98877,76.75391,93.45947v135.44727h-63.20898v-117.3877c0-26.63867,1.35449-60.95215-34.31348-60.95215-37.47412,0-37.92529,41.98926-37.92529,68.62695v109.71289h-63.20898v-221.68262h63.20898v20.31738Z"/><path class="cls-1" d="M1398.26123,132.73828c-18.51123-22.57422-46.50342-36.11914-74.94775-36.11914-63.66016,0-100.23096,58.69385-100.23096,117.3877,0,57.33984,37.92529,114.67969,99.77979,114.67969,28.44385,0,56.8877-14.89941,75.39893-36.12012v79.01172c-24.83203,11.73828-49.66406,20.31738-77.20508,20.31738-95.71631,0-166.60059-82.62305-166.60059-176.53418,0-96.61914,68.17529-181.95117,167.95508-181.95117,26.63818,0,52.82471,7.22412,75.85059,19.86572v79.4624Z"/><path class="cls-1" d="M1657.87207,272.25c0,68.62598-46.95508,117.83887-116.48486,117.83887s-116.48486-49.21289-116.48486-117.83887c0-69.0791,47.40625-118.2915,116.48486-118.2915s116.48486,49.2124,116.48486,118.2915ZM1489.01416,272.25c0,29.79785,19.86572,61.85449,52.37305,61.85449s52.37305-32.05664,52.37305-61.85449c0-30.70215-19.86572-62.30664-52.37305-62.30664s-52.37305,31.60449-52.37305,62.30664Z"/><path class="cls-1" d="M1749.52344,161.18262v120.09668c0,25.28418,4.06348,55.53418,36.11914,55.53418s36.11963-30.25,36.11963-55.53418v-120.09668h63.20898v130.48145c0,64.56348-33.41064,98.4248-99.32861,98.4248s-99.32812-33.86133-99.32812-98.4248v-130.48145h63.20898Z"/><path class="cls-1" d="M1992.42432,184.20898h.90283c12.6416-19.41455,31.60449-30.25049,55.08203-30.25049,9.02979,0,18.05957,2.25781,26.18652,5.41797l-7.67529,58.69385c-7.67529-5.41797-16.70508-8.12695-26.18652-8.12695-43.79492,0-48.30957,38.8291-48.30957,73.1416v99.78027h-63.20898v-221.68262h63.20898v23.02637Z"/><path class="cls-1" d="M2183.85156,382.86523h-63.20898v-168.40625h-21.67188v-53.27637h21.67188v-74.94775h63.20898v74.94775h38.82812v53.27637h-38.82812v168.40625Z"/><path class="cls-1" d="M2205.9707,161.18262h71.78711l52.8252,125.96582,56.8877-125.96582h70.43262l-161.18262,339.97363h-69.52979l73.14209-152.15332-94.3623-187.82031Z"/><path class="cls-1" d="M2680.93945,382.86523h-62.30664v-20.31738h-.90234c-13.54492,17.6084-37.02246,27.54102-60.04883,27.54102-65.01465,0-102.03711-59.14551-102.03711-119.19336,0-58.69434,37.47363-116.93701,101.13379-116.93701,23.02637,0,46.50391,9.93311,61.85449,27.99268v-20.76855h62.30664v221.68262ZM2624.9541,271.79785c0-29.79785-20.31738-61.85449-52.82422-61.85449s-52.37305,32.05664-52.37305,61.85449,19.86523,62.30664,52.37305,62.30664,52.82422-32.50781,52.82422-62.30664Z"/><path class="cls-1" d="M2789.74512,184.20898h.90332c12.6416-19.41455,31.60449-30.25049,55.08203-30.25049,9.03027,0,18.05957,2.25781,26.18652,5.41797l-7.67578,58.69385c-7.6748-5.41797-16.70508-8.12695-26.18652-8.12695-43.79395,0-48.30957,38.8291-48.30957,73.1416v99.78027h-63.20898v-221.68262h63.20898v23.02637Z"/><path class="cls-1" d="M3038.9668,362.09668h-.90332c-13.09277,18.05957-36.57031,27.99219-59.59668,27.99219-65.01465,0-102.03711-59.14551-102.03711-119.19336,0-58.69434,37.47363-116.93701,101.13379-116.93701,23.02637,0,46.50391,9.93311,60.5,27.5415h.90332V0h63.20898v382.86523h-63.20898v-20.76855ZM3045.28809,271.79785c0-29.79785-19.86621-61.85449-52.37305-61.85449s-52.37305,32.05664-52.37305,61.85449,19.86523,62.30664,52.37305,62.30664,52.37305-32.50781,52.37305-62.30664Z"/></svg>
