<?xml version="1.0" encoding="UTF-8"?>
<svg id="Layer_1" xmlns="http://www.w3.org/2000/svg" xmlns:xlink="http://www.w3.org/1999/xlink" version="1.1" viewBox="0 0 639.38 281.95">
  <!-- Generator: Adobe Illustrator 29.7.0, SVG Export Plug-In . SVG Version: 2.1.1 Build 138)  -->
  <defs>
    <style>
      .st0 {
        fill: none;
      }

      .st1 {
        fill: #956037;
      }

      .st2 {
        clip-path: url(#clippath);
      }
    </style>
    <clipPath id="clippath">
      <polyline class="st0" points="0 0 0 281.95 639.38 281.95 639.38 0"/>
    </clipPath>
  </defs>
  <path d="M0,182.15v-38.96h16.85c8.07,0,13.48,2.69,13.48,10.13,0,3.51-1.32,6.36-5,7.96v.1c6.5.73,9.27,4.5,9.27,9.92,0,8.16-8.13,10.85-16.43,10.85H0ZM11.8,158.48h1.33c3.13,0,6.38-.46,6.38-3.77,0-3.56-3.67-3.77-6.86-3.77h-.84v7.54h0ZM11.8,174.4h1.51c3.49,0,9.39.15,9.39-4.13,0-4.71-5.84-4.24-9.69-4.24h-1.2v8.37"/>
  <polyline points="73.62 182.15 61.82 182.15 61.82 143.19 73.62 143.19 73.62 182.15"/>
  <path d="M127.32,153.21c-2.17-1.55-4.93-2.58-7.82-2.58-2.17,0-5.06,1.09-5.06,3.26,0,2.28,3.19,3.16,5.24,3.72l3.01.78c6.32,1.6,11.2,4.34,11.2,10.64,0,3.88-1.09,7.86-4.7,10.49-3.55,2.58-8.31,3.67-12.88,3.67-5.72,0-11.32-1.66-15.95-4.45l5.06-8.16c2.95,2.22,6.44,4.03,10.47,4.03,2.77,0,5.72-1.19,5.72-3.93s-4.64-3.83-7.16-4.44c-7.4-1.81-12.28-3.46-12.28-11.01s6.56-13.08,15.65-13.08c4.58,0,10.18,1.24,14.21,3.2l-4.7,7.85"/>
  <polyline points="235.01 143.19 246.81 143.19 268.42 167.01 268.54 167.01 268.54 143.19 280.34 143.19 280.34 182.15 268.54 182.15 246.93 158.28 246.81 158.28 246.81 182.15 235.01 182.15 235.01 143.19"/>
  <path class="st1" d="M178.34,138.87c-1.32-.96-10.27-1.07-15.53,9.35-5.26,10.41-4.9,27.78,1.13,35.04,3.2,3.85,4.71,4.81,7.75,4.66,3.81-.19,7.31-3.42,7.9-7.91.63-4.75-5.98-10.35-5.86-20.06.08-7.3,4.71-12.9,5.71-16.31.79-2.71.23-3.8-1.09-4.77"/>
  <path class="st1" d="M184.58,139.22c1.34-.94,10.29-.83,15.31,9.7,5.02,10.53,4.27,27.89-1.92,35.01-3.28,3.77-4.81,4.71-7.85,4.48-3.8-.28-7.23-3.59-7.72-8.09-.52-4.76,6.21-10.21,6.32-19.92.08-7.3-4.42-13-5.34-16.43-.72-2.73-.15-3.81,1.2-4.75"/>
  <path d="M177.15,209.33c-3.25-2.48-7.71-3.83-11.98-3.83-10.17,0-17.94,7.29-17.94,15.92s7.7,15.82,17.82,15.82c4.45,0,8.73-1.45,12.1-4.03v5.74c-3.49,1.76-7.95,2.74-11.92,2.74-12.94,0-23.66-8.84-23.66-20.1s10.78-20.52,24.14-20.52c3.98,0,8.01.83,11.44,2.64v5.63"/>
  <path d="M280.75,201.89v23c0,6.35,2.23,12.25,10.96,12.25s10.95-5.89,10.95-12.25v-23h5.66v24.65c0,8.58-6.2,15.14-16.61,15.14s-16.62-6.56-16.62-15.14v-24.65h5.66"/>
  <path d="M365.45,240.86h-6.86l-13.36-16.49h-2.35v16.49h-5.65v-38.96h6.86c4.03,0,8.37.05,11.99,1.81,3.79,1.91,5.96,5.58,5.96,9.3,0,5.58-4.34,10.23-10.89,10.91l14.32,16.95h0ZM342.87,220.34h1.81c5.78,0,12.04-.93,12.04-7.13s-6.74-6.98-12.34-6.98h-1.51v14.11"/>
  <polyline points="402 240.86 396.34 240.86 396.34 206.33 385.57 206.33 385.57 201.89 412.78 201.89 412.78 206.33 402 206.33 402 240.86"/>
  <polyline points="433.61 201.89 440.1 201.89 451.24 218.53 462.38 201.89 468.88 201.89 454.07 223.91 454.07 240.86 448.42 240.86 448.42 223.91 433.61 201.89"/>
  <path d="M494.29,231.09l-5.18,9.77h-6.08l21.67-40.62,21.67,40.62h-6.08l-5.17-9.77h-20.83ZM504.71,210.88l-8.07,15.77h16.13l-8.07-15.77"/>
  <path d="M579.47,240.86h-6.86l-13.37-16.49h-2.35v16.49h-5.65v-38.96h6.86c4.03,0,8.37.05,11.98,1.81,3.79,1.91,5.96,5.58,5.96,9.3,0,5.58-4.34,10.23-10.89,10.91l14.32,16.95h0ZM556.9,220.34h1.81c5.77,0,12.04-.93,12.04-7.13s-6.75-6.98-12.34-6.98h-1.51v14.11"/>
  <path d="M604.51,201.89h9.4c13.9,0,25.46,6.3,25.46,19.27s-11.32,19.69-25.65,19.69h-9.21v-38.96h0ZM610.18,236.41h1.98c11.56,0,21.55-3.72,21.55-15.04s-9.99-15.04-21.55-15.04h-1.98v30.08"/>
  <path class="st1" d="M222.25,196.18c-1.32-.97-10.27-1.07-15.53,9.34-5.26,10.41-4.9,27.79,1.13,35.05,3.2,3.85,4.71,4.81,7.75,4.66,3.81-.2,7.31-3.42,7.9-7.91.63-4.75-5.98-10.35-5.87-20.06.08-7.3,4.72-12.9,5.71-16.31.79-2.72.23-3.8-1.09-4.77"/>
  <path class="st1" d="M228.5,196.53c1.34-.94,10.29-.83,15.31,9.7,5.02,10.53,4.27,27.89-1.92,35.01-3.28,3.77-4.81,4.71-7.85,4.48-3.8-.28-7.23-3.58-7.72-8.09-.52-4.76,6.21-10.21,6.32-19.92.08-7.29-4.42-12.99-5.34-16.43-.73-2.73-.15-3.81,1.2-4.75"/>
  <path d="M113.47,271.24c0,5.67-4.65,10.16-10.26,10.16s-10.26-4.49-10.26-10.16,4.65-10.21,10.26-10.21,10.26,4.57,10.26,10.21h0ZM95.13,271.22c0,4.44,3.61,8.15,8.07,8.15s8.07-3.71,8.07-8.15-3.55-8.15-8.07-8.15-8.07,3.68-8.07,8.15"/>
  <polyline points="132.25 260.53 147.6 276.62 147.6 261.37 149.79 261.37 149.79 281.95 134.44 265.89 134.44 281.07 132.25 281.07 132.25 260.53"/>
  <path d="M186.26,261.37h3.24c3.58,0,6.58,1.3,6.58,5.33,0,1.59-.6,2.95-1.93,3.84,2.35.58,3.73,2.69,3.73,5.04,0,3.92-3.16,5.49-7.05,5.49h-4.57v-19.69h0ZM188.46,270.04h.84c2.48,0,4.6-.29,4.6-3.34s-1.88-3.29-4.57-3.29h-.86v6.64h0ZM188.46,279.03h2.19c2.46,0,5.04-.6,5.04-3.6s-2.93-3.5-5.33-3.5h-1.91v7.1"/>
  <polyline points="216.77 261.37 226.98 261.37 226.98 263.41 218.96 263.41 218.96 269.26 226.74 269.26 226.74 271.29 218.96 271.29 218.96 279.03 226.98 279.03 226.98 281.07 216.77 281.07 216.77 261.37"/>
  <path d="M249.33,275.47l-2.38,5.59h-2.4l9.09-20.64,8.86,20.64h-2.43l-2.32-5.59h-8.41ZM253.59,265.55l-3.37,7.89h6.66l-3.29-7.89"/>
  <path d="M282.5,281.07h-2.19v-19.69h2.85c3.74,0,7.21.99,7.21,5.43,0,3.03-1.91,5.17-4.94,5.44l6.27,8.83h-2.69l-5.95-8.64h-.55v8.64h0ZM282.5,270.49h.68c2.48,0,4.99-.47,4.99-3.53,0-3.24-2.38-3.55-5.02-3.55h-.65v7.08"/>
  <path d="M335.76,265.21c-.78-1.36-1.72-2.14-3.4-2.14s-3.26,1.26-3.26,3.06c0,1.7,1.75,2.48,3.09,3.08l1.3.57c2.56,1.12,4.73,2.4,4.73,5.54,0,3.45-2.77,6.09-6.19,6.09-3.16,0-5.51-2.04-6.13-5.09l2.14-.6c.29,2.02,1.83,3.66,3.94,3.66s4.05-1.62,4.05-3.84-1.8-3.08-3.63-3.92l-1.2-.52c-2.3-1.04-4.29-2.22-4.29-5.04,0-3.05,2.58-5.01,5.51-5.01,2.19,0,4.05,1.12,5.09,3.06l-1.75,1.12"/>
  <polyline points="362.32 281.07 360.13 281.07 360.13 263.41 355.37 263.41 355.37 261.37 367.13 261.37 367.13 263.41 362.32 263.41 362.32 281.07"/>
  <path d="M387.23,281.07h-2.19v-19.69h2.85c3.74,0,7.21.99,7.21,5.43,0,3.03-1.91,5.17-4.94,5.44l6.27,8.83h-2.69l-5.95-8.64h-.55v8.64h0ZM387.23,270.49h.68c2.48,0,4.99-.47,4.99-3.53,0-3.24-2.38-3.55-5.02-3.55h-.65v7.08"/>
  <polyline points="414.87 261.37 425.08 261.37 425.08 263.41 417.06 263.41 417.06 269.26 424.84 269.26 424.84 271.29 417.06 271.29 417.06 279.03 425.08 279.03 425.08 281.07 414.87 281.07 414.87 261.37"/>
  <polyline points="444.48 261.37 454.69 261.37 454.69 263.41 446.68 263.41 446.68 269.26 454.46 269.26 454.46 271.29 446.68 271.29 446.68 279.03 454.69 279.03 454.69 281.07 444.48 281.07 444.48 261.37"/>
  <g class="st2">
    <polyline points="479.33 281.07 477.13 281.07 477.13 263.41 472.38 263.41 472.38 261.37 484.13 261.37 484.13 263.41 479.33 263.41 479.33 281.07"/>
    <path class="st1" d="M451.62,13.81c12.24,3.57,41.48,9.23,44.07,9.74,6.3,1.24,12.81-1.24,18.96-.44,14.09,1.73,17.6,10.28,22.49,13.96,4.33,5.04,9.94,8.86,12.54,15.02,5.1,9.26,11.95,16.88,16.14,26.29,2.11,1.58,4.15,11.47,3.11,13.41-2.6,3.41-5.29,6.73-7.35,10.34-2.85,2.6-6.61,2.76-9.78,4.37-1.09.51-1.96,1.3-3.59.34.68-5.07,3.31-9.56,5.77-14.23,1.61-2.9.89-6.23,3.64-8.66.75-1.41,2.31-4.19,1.63-5.73-.79-3.42-8.86-13.7-11.54-13.77-1.46.85-2.41,6.28-2.38,7.89-.01,7.06-.9,12.84-2.77,19.05-.66,4.27-2.01,7.9-3.46,11.88-.02,3.67,1.02,14.33.33,16.46.22,4.66-.4,7.68.09,12.52,1.64,1.84,3.46,4.03,4.12,6.11,2.58,3.56.94,7.89,1,12.1.89,9.86,4.75,18.46,5.37,28.13-.12,1.34-.56,1.78-1.53,2.13-4.47.4-7.65.2-7.65.2-1.46-5.4-2.99-11.44-5.53-16.24-1.94,5.48-2.29,9.73-4.68,15.11-2.56,1.99-5.93,1.26-8.79,1.09-.71-.02-1.32-.66-1.3-1.38.96-5.52,2.15-8.21,3.03-13.81.25-2.59.42-5.18-.22-7.97-.93-2.08-1.45-5.4-2.19-7.93-2.66-7.05-10.76-11.48-14.43-17.57-1.9-2.38-4.94-6.57-6.03-9.37-1.68-3.63-2.48-6.07-6.16-8.32-3.57-.46-6.93,1.68-10.27,2.84-10.43,5.34-21.43,9.76-33.16,12.47-2.43.56-6.63-.1-7.7.32-1.07.42-.74.78-.74.78.06,4.29-.26,9.37.09,13.6,0,6.62-3.67,11.86-8.36,16.56-2.76,2.69-7.47,12.2-7.91,15.36-.54,2.45.24,3.88-1.68,4.39-3.24-.13-4.82.42-7.96.04.16-5.81-.18-12.52-2.26-18.03-.39-1.98-1.15-3.7-1.63-5.59-.53-.19-1.32-.49-1.61.13-3.05,3.49-6.39,8.96-9.21,13.58-2.59,4.26-3.14,4.76-5.86,8.59-1.3,1.5-2.97,1.24-2.97,1.24,0,0-7.46.26-7.81-.89-1.09-3.49,1.08-3.21,1.54-6.77.65-7.13,2.41-18.13-3.5-24.37-6.29-5.1-15.51-8.37-20.18-10.72-2.54-1.68-4.46-3.61-6.54-5.64-.69,5.26-5.24,10.03-8.4,14.14-2.96,3.58-4.71,8.54-9.32,10.37-2.1,1.56-5.2.39-7.23-.38-4.28-3.25-3.94-10.74-8.59-13.91-1.02-.83-2.13-1.65-4.14-2.08-4.29-.12-13.5-.12-14.29-.58-2.74-1.06-4.99-3.54-5.63-6.42-.36-3.23.1-6.79-1.7-9.43-3.83-3.51-6.67-7.43-7.16-12.27-.96-4.14.07-8.67-.43-13.07-.88-.56-6.94-4.57-6.86-7.25-.75-1.81.55-3.65.78-5.52,2.1-4.77.12-10.37,1.07-15.61,1.82-4.24,5.8-5.83,8.57-9.06,2.57-2.34,5.16-5.48,7.84-8.45,2.76-2.87,5.03-7.19,9-8.33,5.13-1.46,10.41-1.49,15.86-1.51l5.82,1.68s2.62-12.26,2.72-12.88c1.54-4.07,3.71-7.94,6.49-11.26,3.12-2.77,7.01-4.36,10.97-5.32,3.17-1.43,6.35-3.04,9.68-4.29,6.36-3.48,12.2-7.61,18.64-11,6.59-2.14,15.03.15,21.98.97,0,0,33.45,8.38,49.14,12.84h0ZM417.42,12.49c-4.45-.66-21.9-3.23-24.15-2.76-3.75-.37-16.82,6.59-21.82,9.93-2.01,1.28-20.42,7.4-22.91,9.58-8.27,7.24-9.89,21.97-9.89,21.97-1.4,1.93-7.5-2.02-11.13-1.81-4.72.54-9.12.19-13.81,1.58-3.7,1.8-4.57,9.93-6.31,11.49,0,0-5.75,7.26-7.13,8.65-1.53,3.53-2,7.54-3.09,11.26-1.37,1.03-2.3,2.47-3.25,4.2-.4,1.33-.08,2.68,1.06,3.52,2.64,1.51,6.81,2.6,6.88,6.36-.61,5.71-1.59,11.84-1.04,17.85.29,2.24,4.96,8.1,5.36,9.54.01,2.77,1.2,6.43.84,9.64,4.3,3.7,10.75,1,16.52,2.42,2.29.96,4.15,3.61,5.62,5.53,1.89,2.65,4.11,7.86,7.62,6.62,3.51-1.25,11.77-11.93,13.26-14.7,1.49-2.78,2.15-9.66,3.91-10.66,1.76-1.01,11.45,7.83,16.85,10.61,5.78,2.98,10.91,3.87,15.55,5.62,5.61,2.11,5.7,10.21,5.37,15.25-.1,2.24-.1,8.27.23,12.57,2.86.73,5.91-.65,8.79-5.68,3.17-5.55,6.28-7.16,8.35-13.36,1.07-.06,7.82-3.03,8.54-2.21,2.75,3.17,3.84,16.06,5.85,17.65,2.9-1.08,8.9-8.35,9.82-9.31,1.79-3.35,2.67-8.41,3.23-12.32-.19-2.95-1.81-10.95-1.6-14.88.12-1.07,1.04-1.85,1.86-2.54,1.44-.5,2.82-.73,4.46-.57,2.94-.04,7.08.92,27.21-6.91,3.21-1.24,7.29-3.8,10.29-5.68,5.98-2.78,10.81-8.99,17.37-10.15,4.23.25,6.61,14.31,7.21,16.83,1.22,4.32,3.2,6.39,5.59,10.22,6.74,8.06,18.98,14.48,19.57,25.59.16.54.41,1.08,1.05.92,2.49.24,3.81-1.12,4.93-2.7.55-1.16,2.66-7.63,1.6-10.49-1.13-3.01-3.47-6.66-3.39-9.61,1.56-4.69.08-9.03-.49-13.96-1.07-3.25-2.13-6.67-3.84-9.85-.12-2.06-.31-4.92,1.88-6.38.47-.44,2.67-4.08,4.99-11.66.44-.08,2.54-14.05,3.83-18.75-.08-.36,3.18-14.22,1.1-16.95.1-.09,0-.18,0-.18-2.26-5.07-5.08-9.71-9.53-13.86,0,0-7.79-9.9-14.71-10.61-2.68.1-10.01-1.31-12.92-.64-7.79,1.8-48.51-7.99-54.1-9.67-5.69-.87-14.14-3.91-17.45-3.82l-14.01-2.7"/>
  </g>
</svg>