<svg viewBox="0 0 1430.08 455.7021333333334" version="1.1" xmlns="http://www.w3.org/2000/svg" id="mountain-range">
  
  <defs>
    <style>
      .st0 {
        fill: #d3bea6;
      }

      .st1 {
        fill: #f3ece6;
      }
    </style>
  </defs>
  <path id="mountains" d="M1381.19,332.58c-4.65-1.53-20.7-17.12-23.64-16.49-1.06.23-2.06,1.88-3.6,1.97-3.64.22-18.76-16.12-24.26-19.14-6.39-3.51-4.45.76-9.65,1.09-15.75,1-18.05-6.4-28.32-13.31-4.06-2.73-9.69-4.83-13.82-7.61-5.56-3.75-17.71-16.37-21.57-17.9-3.82-1.52-7.85.24-12.07-1.46-2.99-1.21-5.17-5.61-7.58-7.08-2.29-1.39-4.82-1.28-7.33-2.82-5.56-3.41-11.32-14.55-19.22-13.61-4.18.5-6.83,3.49-9.63,4.02-13.41,2.51-36.38-17.83-48.24-23.85-5.84-2.96-10.19-2.12-14.3-7.69-2.75-3.73-3.66-8.28-5.64-12.41-1.86-3.9-1.17-3.43-4.51-6.77-2.38-2.37-3.45-4.95-7.89-4.51-13.99-10.91-14.07-10.99-31.58-3.38-6.33-3.49-37.7-12.51-44.54-12.39-27.31.46-59.6-10.15-87.49-16.3-11.22-2.47-25.48-11.61-35.17-16.68-3.12-1.63-15.23-8.25-17.46-8.58-3.62-.55-15.07,7.5-19.48,9.43-1.67.73-3.49.2-4.5.53-1.23.4-1.37.63-2.26,1.13-9.84,3.01-16.03-5.81-23.62-7.39-3.78-.79-7.12-.11-10.65-.62-15.66-2.26-38.32-26.32-53.89-32.95-6.12-3.66-9.42,2.91-8.83,8.26-1.04.66-2.18.92-3.38,1.13-1.72.29-3.36-.47-5.17,1.02-2.2,1.81-1.17,3.85-1.59,5.75-.78,3.5-.56,6.68-1.13,9.02-1.54,6.34-14.09,2.76-18.44.96-4.11-1.7-9.47-6.39-13.15-7.28-2.32-.56-4.34.87-4.49.69-.24-.29.63-2.26-.72-3.49-1.45-1.33-7.84-4.23-10.47-6.21-12.21-9.15-19.42-15.75-33.53-22.86-4.16-2.1-10.1-3.38-13.83-5.34-13.35-6.99-25.98-22.36-39.22-29.58-7.2-3.93-15.86-4.92-23.67-9.03-12.92-6.8-30.7-23.76-42.43-28.62-5.43-2.25-13.64-3.09-19.46-5.35-4.95-1.93-11.73-7.45-16.31-6.81-7.77,1.08-17.78,16.53-20.3,23.68-10.15-5.82-22.85-8.78-32.37-14.43-3.19-1.9-5.6-6.04-9.05-6.78-3.93-.85-6.56,1.13-9.89,1.01-4.68-.17-10.18-.93-15.23-1.22-.35-.02-3.12-2.23-4.48-1.11-.45.37-.97,8.58-2.29,10.13-.41.08-1.88,2.1-3.38,2.26-.12.01-1.56-1.74-2.22-1.14-2.46,2.24-4.24,14.28-5.42,17.74-2.44,7.15-10.91,17-13.26,23.96-1.18,3.5-.56,9.24-2.78,12.45-.44.64-2.57,1.46-3.38,2.26-3.6,3.52-2.93,9.85-4.76,14.97-.52,1.45-3.33,7.1-4.26,7.58-1.52.79-4.42.33-7.34,2.25-3.49,2.29-7.43,8.94-11.27,12.41-8.36,7.58-19.25,12.48-25.38,21.43-.74,1.08-1.68,2.6-2.26,3.38-4.76,6.52-27.76,24.2-35.34,28.39-4.11,2.27-13.36,4.73-15.42,7.7-1.84,2.66-1.86,6.5-4.51,9.02-10.53,3.44-20.66,8.07-32.26,8.92-2.17.16-4.59-1.45-6.45-1.11-.5.09-5.1,6.88-6.41,7.98-1.49,1.31-2.17,2.18-3.38,3.38-6.68,2.8-10.66,10.29-16.55,14.46-3.42,2.42-9.99,5.59-13.9,6.96-10.71,3.77-13.23.85-22.56,10.15-3.03,3.02-7.69,8.26-9.02,12.41-5.57,17.38-8.65,40.25-13.53,58.65-4.53-.83-5.79,2.93-7.89,4.51-8.27,6.19-15.23,10.74-24.23,15.83-1.46.82-3.51,1.81-5.1,2.22-.72.19-.86.93-2.23.52-3.32-1.02-11.92-7.27-16.54-9.38-14.29-6.54-36.3-11.19-52.08-14.46-22.16-4.6-44.84-6.85-66.75-12.76v96.99c4.07,2.8,1.98,9.67,3.94,13.53,4.87-9.81,5.31-21.19,8.48-31.56l5.06,15.78c3.16-1.54,5.53-16.93,6.77-16.92l6.22,18.05,4.99-4.58,7.95-12.33c2.29,1.19,3.07,8.67,3.98,11.27l6.74-9.02c3.42,10.41,5.89,17.65,9.59,2.26,3.71,4.59,5.08,20.92,10.15,7.89,9.11,15.78,6.21,8.34,10.21-2.25.38-1.01.2-3.08,2.19-2.26,3.16,1.31,4.5,9.27,7.91,11.25l4.51-6.72c1.41,0,8.68,20.22,13.53,9,2.65,3.66,9.37,8.02,8.47,1.12,6.81,6.93,6.33-6.22,9.59-7.88,2.58-1.32,3.18,8.66,6.73,7.88,3.98-.87,4.87-17.42,9.04-20.27,2.65-.02,3.79,21.37,6.77,21.38l9.02-19.13c2.39-.04,2.34,17.06,5.64,19.13l6.77-14.63c2.13,2.81,2.11,6.35,2.84,9.58.3,1.35.3,3.55,2.22,1.69,1.01-.99,3.98-11.87,6.23-12.4,4.39-1.04,3.09,13.67,5.63,13.51l6.77-10.11,5.15,15.72c2.35,1.7,13.02-5.72,15.15-7.82,1.54.02,4.86,13.11,6.94,13.57,6.65,1.46,6.86-9.77,9.41-13.59.34.1.77-.09,1.13,0-.4,1.91,1.11,11.27,2.82,11.26,3.26-2.46,2.86-7.03,3.95-10.13,1.04-2.98,1.94-6.45,3.95-9,1.38-.02,2.61,8.37,2.82,10.13.18,1.49-.58,7.93.57,7.91,3.01-.06,3.16-4.64,3.75-7.21.08-.21.14-.44.19-.7.25-.75,1.24-3.57,1.69-3.38,1.99,1.18,1.3,2.97,1.7,4.51.41,1.6,1.31,9.03,2.82,9,2.34-2.05,2.74-5.19,3.95-7.87.53-1.17.19-3.18,2.24-3.38-.4,1.69.94,3.29,1.14,4.51.33,2.04-.25,4.62.01,6.77,2.75-.64,2.52-3.94,3.37-5.64,1.94-3.86,3.48-9.13,5.36-12.09.59-.93.78-3.03,2.52-1.44,2.26,2.07-.28,15.79,2.84,15.76,1.82-.02,3.71-10.26,6.77-11.25l4.51,13.51c3.72-.05,5.31-22.92,9.6-3.36,2.88-.17,3.07-6.77,3.94-6.78,4.01.49,4.14,7.04,8.44,6.77.48-14.87,6.22-5.08,6.76-5.63-.93-6,3.61-5.04,4.61-6.33,1.64-2.1,4.51-18.7,5.55-22.99.53-2.17.69-4.56,1.14-6.76h1.1c.04,1.1.02,2.21.01,3.33-.11.29-.11.68,0,1.18.1,4.21.92,7.84,1.13,11.28.05.75-.05,1.51,0,2.26.03.37-.03.75,0,1.13.05.74-.06,1.51,0,2.26.36,4.52-.69,9.03,1.14,13.53,1.78,1.3,6.39-10.99,6.75-12.4.16-.62-.11-1.54,0-2.26.42-.1,1.38-.92,1.91-1.13.11.25.22.51.35.78.05,2.37-.12,4.77,0,7.13.06,1.12-.05,2.26.01,3.38l3.37-2.25c0,.35-.07.79,0,1.13.07.36,1.02.79,1.13,1.13.7,2.29,1.71,4.44,2.27,6.76.76.57,3.68-3.13,3.37-4.51,5.68,1.09,6.2-12.91,7.91,0,1.95.38.78-1.37,1.12-2.25,5.91,3.49,9.46,0,15.77-.58,3.51-1.55,7.76-12.38,7.93-16.34,1.5-.32,2.26.6,3.37,1.13-.76,1.93,1.09,4.5,1.13,5.64.13,3.66-1.08,6.6-1.12,10.14,2.67-.18,1.69-5.89,2.33-6.71.3-.38,1.58.08,2.17-.05l1.14,12.4,5.06-7.86,4.51,11.23c1.83-1,3.02-6.46,4.54-6.76,2.62-.52,2.3,5.92,7.3-3.37,4.97,1.52,3.77-5.21,4.51-9.02.39-.75.75-1.54,1.13-2.26.09-.18.08-.46.04-.78.02-.56.01-1.06-.02-1.49l.64-.64c.19-.15.37-.3.46-.46,5.27-9.7,6.54.3,7.91,6.77l4.49-3.38,1.15,15.78,5.61-9.01c1.93,2.49.58,12.85,1.15,13.53.2.24,4.14-1.48,5.62,1.12.38-8.06,2.2-17.62,4.49-25.42.36-1.22.45-3.57,2.28-1.65,1.4,1.48,3.51,20.75,7.35,23.68,1.99-2.71,1.55-7.42,5.06-9.02,1.01,3.59.72,7.88,1.7,11.31.42,1.46.28,2.69,2.25,2.21l7.33-12.4.57,12.4,4.51-12.39,1.71,6.76,3.36-3.38c3.87,24.72,5.36,3.04,8.05,1.17.51-.35,2.54,1.13,3.29.6,1.26-.88,5.7-25.85,6.71-29.98.31-1.26-.33-3.3,0-4.51.72-2.65,5.24-13.9,6.77-15.79l1.14,41.73c5.19-6.45,5.12-16.95,7.88-24.81.43-1.24,2.07-2.84,2.26-4.51.97,1.01,1.97,1.93,2.26,3.38.31,1.57-.12,3.86,0,5.64.39,6,.34,12.06,1.13,18.04,2.55.46,1.8-.11,2.52-1.43,1.91-3.51,2.76-9.32,4.26-13.21,1.14-.33,2.24,4.79,2.24,5.07v16.35l2.54-1.44,5.35-12.09v18.05l3.37-6.76,1.14,11.27c2.3,2.91,4.66-8.82,6.2-9.02l1.67,7.88c1.51-6.54,3.8-12.37,3.4-19.17,3.96,2.58,3.15-.41,3.68-.71,4.87-2.75,3.06,6.5,4.77,9.74,3.82-4.13,2.86-8.85,2.83-13.53,1.26.68,2.12.54,3.37,0-.26,3.44-.24,6.44,2.27,9.03-.56-.03-1.92-1.59-2.25-1.13,1.71,5.49,1.03,11.22,1.12,16.91,4.31.66,2.14-8.06,5.62-9.01l1.15,11.27c3.99-1.4,6.83-4.94,7.9-9.02,3.77,1.19,2.16,8.09,6.75,7.89l3.4-15.78,4.48,10.14,4.51-24.8,2.28,32.7,4.49-14.65,1.15,15.78,4.51-10.14c4.05.93-.11,9.98,4.49,9.02-.49-1.35,1.69-11.44,3.38-10.15l1.15,6.76c3.67.46,2.23-4.58,6.19-3.4,2.28.68-.36,9.69,7.32.02l2.25,7.89,5.67-22.54,2.25,15.79c2.47,2.86,3.89-7.6,5.08-7.91l1.69,6.77c3.64-.92,1.47-7.65,5.62-6.76l1.15,11.26c1.85.32,1.33-3.01,2.83-3.39,2.67-.67,3.31,6.9,6.2-4.49l2.23,4.49,5.64-23.67,2.28,32.7,6.75-5.63v7.88s6.77-5.63,6.77-5.63c-.16.82-.62,11.06,2.25,7.89.39-.43.79-7.55,4.51-7.89l2.83,7.87c6.78-13.06,5.58-1.13,7.89-1.13,1.43,0,3.74-7.97,5.64-9l2.8,3.38,3.41-16.91,3.39,14.65,2.25-6.76,4.48,4.51,4.54-10.14,2.23,3.37,6.77-29.31c-.22,14.71.01,29.33,1.15,43.97l9.01-6.76c-.1,4.06-.59,8.37,2.83,11.25,2.35-.97,4.19-7.52,5.65-7.87,4.28-1.02,1.49,7.33,3.92,7.88.01-1.46,2.95-7.92,3.96-7.86,1.41.08,1.27,5.49,3.34,2.19l8.49-15.74,1.15,16.91,5.63-3.37.02,9.02c5.37-5.4,5.19-8.97,9.59,0,2.41.63,2.59-3.22,2.83-3.38.5-.34,5.94,6.56,6.75-4.51l4.49,5.64,2.26-9.02c-.29,2.7,1.49,19.56,2.31,20.3.28.25,2.01-.71,2.76-.55,1.3.29,2.14,1.65,2.28,1.65.62-.01,3.81-8.45,3.96.03l2.81-2.26c2.14,6.45,3.33-2.21,5.62-1.12,2.54,1.27,1.52,7.33,4.55,6.79,3.05-.54,4.9-7.41,7.29-5.67,1.47,1.07,1.66,13.11,7.34,3.38l3.39,4.5,1.7-4.5,1.12,3.39,2.25-3.39c.95.79,1.7,1.82,2.26,2.26-2.7,5.89.52,10.73,2.26,1.13.04-.23.91-.69,1.13-1.13.38.37.74.77,1.13,1.13.04,1.23.78,2.27,1.13,3.38.25.83-.31,3.11,0,3.38,2.73,2.33,3.62-2,4.21-3.06,2.72-4.88,5.8,3.42,9.32,3.05-.03-4.87.06-9.78,0-14.66-.02-1.5.06-3.01,0-4.51-.03-.74.08-1.52,0-2.26.78,1.5,2.13,6.52,2.26,7.89.4,4.38-.3,9.1.01,13.53l2.23-3.37.57,4.5c1.73-1.02,1.35-3.22,2.29-4.59.97-1.42,3.78,1.96,2.8-3.29l2.23,2.24,2.27-13.53c2.22,2.24.81,6.03,1.13,9.02-.14,1.68-1.33,8.7.58,9.02l5.04-6.76c.78,1.31.93,6.5,1.15,6.77,2.1,2.53,1.94-2.92,3.37-2.25l.02,5.63c.46.64,2.75-2.78,3.36-2.26.42.36-.92,2.7,1.12,2.25l1.71-4.51,1.68,4.51c.73-5.86,3.22-12.23,3.4-18.04,2.88,3.44-.66,9.27,2.26,12.41.02,3.37-.03,6.77.01,10.14l2.26-10.14,3.36,9.01,1.15-5.64,3.37,1.14,2.27-16.92c.73-.08,2.24,1.5,2.24,1.69v19.74l3.37-7.89.02,9.01,4.49-6.76.02,5.63,5.62-3.39c-.45,2.19,1.48,4.63,3.38,5.63l5.67-19.16c1.05-.07,2.24,5.87,2.24,6.2v18.61l3.37-5.63.02,6.76,3.94-4.52.58,6.77c2.21-1.48,4.41-4.01,4.52-6.76,3.75-1.03,1.26,3.71,4.48,4.51l7.91-24.81v18.05l3.95-10.16.58,10.16,2.81-4.52.58,5.64,5.07-4.5c4.22,8.2,5.03-3.74,6.2-7.9.87-3.12,3.1-6.23,2.27-10.14h1.11c.08,1.49-.07,3.01.01,4.51v2.26c-.25,2.5-1.1,4.45-1.13,7.89-.01,1.27-.45,5.64.56,5.65l1.69-5.65c.57-.09,1.97-1.58,2.24-1.13l1.7,10.14,6.2-10.14-1.11,9.02,4.49-5.63.02,9.01c3.56.73,3.27-3.84,5.62-4.5l.02,9.02,5.62-5.64-1.11,4.51,4.49-4.51,1.12,5.63c1.12-2.66,1.4-5.86,4.53-5.63.22,1.49-1.65,3.77-1.12,5.64,4.91-4.94,3.91,1.71,10.14,0,.07-.74-.05-1.51,0-2.25.05-.72.07-1.54,0-2.26,1.16-1.62,1.51-3.74,2.26-5.64l1.14,12.41,2.8-5.63,1.71,7.89,2.81-3.39.58,3.39,3.36-3.38,1.12,3.37,2.28-7.88,2.23,6.75c-.39-2.61,2.94-5.37,3.4-6.76.97,1.39,1.02,2.89,1.13,4.51.13,1.86-.1,3.78.01,5.64,2.65-.32,1.7-3.42,2.24-4.51,3.73-7.4,3.61-4.5,4.54,1.69.88,5.93,3.29-3.44,5.62-5.07v4.51c2.1-.43,2.35-2.69,2.26-4.51.97-.07,1.93-1.14,3.37.01l1.15-10.15,2.23,5.62c1.04-2.12.67-4.85,1.14-6.76,1.51-6.08,2.46-10.7,3.38-16.92.16-1.07-.16-2.31,0-3.38.48-3.29.69-6.74,1.13-10.15.5-3.95,1.31-12.6,2.26-15.79,2.6,9.96.41,21.29,1.14,31.57l3.36-4.51-1.11,10.14,2.23-2.24c.17,3.16-.24,6.4.02,9.57.46,5.52.98,12.2,2.24,17.49.06,1.13,1.1,14.59,4.5,11.27.46-.45,2.85-10.56,3.41-12.4,5.69,5.65,5.69-5.39,5.63-10.15-.07-5.46-1.58-10.33-1.12-15.78l2.24,7.89.56,9.02c1.92-1.06,1.09-3.32,1.81-4.73,1.98-3.92,1.06-2.58,2.14-6.54.98-3.6,1.65-4.43,2.26-9.02.14-1.09-.13-2.29,0-3.38.03-.25.96-.9,1.04-1.8.27-2.99-.02-5.95.08-8.94.05-1.36-.84-4.19,1.12-3.92l1.15,30.44,2.23-4.5-.89,9.58.92,19.73,5.07-15.78.57,7.88,2.81-5.63,2.26,6.76c7.05-14.88,7.02,3.93,14.04,6.31,6.73,2.29,6.93-5.01,9.66-6.3,2.9-1.38.54,3.89,2.79,3.37l3.42-7.89,3.34,2.25c-.21-2.43,2.69-2.91,3.38-4.27,3.42-6.8,3.89-20.84,7.94-28.43,2.77,0-.01,3.31-.01,3.94v23.68c0,.47-4.01,4.55.57,1.7l4.51-9.02-.56,7.89,3.94-4.51,1.67,2.25,5.65-16.91v16.92c5.02-2.33,2.35-.61,3.4,3.38,2-3.8,6.5-1.95,6.75-2.25,1.52-1.87-1.24-26.04,1.14-30.45,3.37,1.89,2.05,6.91,3.45,10.42.32.81,2.17.86,2.23,1.58.13,1.58-1.34,3.28-.97,5.22.35,1.86,3.71,4.23,3.87,5.9.18,1.93-2.28,3.99-1.81,6.2l5.07-6.76,1.7,4.5,3.36-4.5,1.15,5.63,2.81-3.4,2.81,3.39c-.87-7.08.94-13.13,2.14-19.87.38-2.15-.32-4.71.11-6.45.3-1.2,2.21-.65,2.27-.75l1.14,16.91,3.36-1.12,1.15,11.28,2.22-1.15c-.99,3.23,3.06,5.13,5.55,5.05,5.03-.16,7.08-7.18,13.64-2.78,1.28-7.38.82-12.67.15-19.88-.12-1.26-1.04-4.05.98-3.8l4.54,25.93,4.49-7.89.02,6.77,4.49-4.51c-1.86,10.96,8.52,2.62,11.86,11.27,2.46.63,2.43-3.07,2.83-3.37,2.25-1.74,2.34,2.07,3.37,2.82.84.61,6.76.6,7.68.94.29.11.02,1.9.78,1.92,1.83.03,2.63-2.28,4.48-2.33,1.06-.02.73,2.96,2.33,3.31.99.22,2.99-1.12,4.52-1.09,2.72.05,5.55,3.1,9.46,1.14,1.4-9.46,1.35-19.22,2.33-28.69.17-1.61.52-6.77,2.23-7.34l1.13,34.4c1.16,4.18,1.88,2.27,4.51.56l.02,3.38,2.26-3.38,2.25,3.38c1.93-2.95,5.3-1.02,5.56-1.19.41-.27,2.63-10.57,3.46-1.07,1.9.78,4.35-2.29,5.08-2.22,2.02.17,4.15,12.19,9.57,10.12l2.28-11.27,5.61,7.89,1.15-6.76c2.24.72,3.02,3.56,3.39,5.63l3.36-4.5,2.26,4.5c.07-5.7,2.49-1.65,4.52-6.76.41-1.04.41-2.38,1.13-3.38l3.37-15.78c.43,7.19,1.65,14.24,2.27,21.42.22,2.53-1.26,5.27,2.25,4.51v-4.51c1.18-.55.71-2.78,2.25-2.25l1.14,5.63v-85.71c-15.89-10.3-31.45-22.14-48.88-29.5ZM1267.61,345.66s.04-.06.05-.09l.79-.3c.19.12.47.33.82.59-.6-.05-1.16-.12-1.66-.21ZM859.91,281.69c.26.22.54.5.82.83-.28-.27-.55-.55-.82-.83ZM957.52,304.56l.11.21c-.04-.07-.08-.14-.11-.21ZM770.3,285.39,821.96,371.98s-.07-.1-.11-.15c.11.12.22.26.33.4-.08-.09-.15-.17-.22-.26ZM989.54,293.16c-.47.16-.92.25-1.35.29.8-.33,1.54-.63,2.22-.92-.21.27-.48.5-.88.63ZM994.74,307.95c.1.26.2.48.31.69-.08-.01-.16-.03-.24-.04-.1-.3-.03-.63-.07-.65ZM1020.66,301.57c0-.05,0-.11,0-.16.01-.43.02-.88.02-1.36,0,.53,0,1.03-.02,1.51ZM1019.52,307.05c-.17.66-.62,1.05-1.58.98.64,0,1.16-.33,1.58-.98ZM1020.85,296.69s0,.1-.01.15c0-.05,0-.1.01-.15ZM998.3,312.75c-.59-.12-1.23-.22-1.31-.29.62.1,1.06.2,1.31.29ZM981.2,276.37c-.82-.2-1.51-.48-2.1-.82.62.28,1.31.55,2.1.82ZM970.09,312.8c-.03.14-.05.28-.07.42-.18.37-.36.78-.52,1.21l-.19-.13c.25-.55.51-1.06.78-1.51ZM1181.44,302.41l.51,1.03c-.06-.03-.27-.49-.51-1.03ZM1284.62,346.46c.08.14.16.28.23.42-.83-.96-1.66-1.91-2.52-2.85.81.79,1.56,1.6,2.29,2.42ZM1306.02,364.34c.64.58,1.32,1.14,2.03,1.69-.78-.45-1.49-.98-2.03-1.69ZM1330.83,332.09v-.47c.04.14.02.31,0,.47ZM1109.32,228.42c-.25-.18-.48-.37-.68-.55.24.19.46.37.68.55Z" class="st1"/>
  <path id="trees" d="M1429.51,441.92c-2.83-1.54-5.15,1.9-2.81,3.75-.43.12-.8.28-1.01.52-.03-.08-.06-.16-.11-.24-.12-.23-.58-.28-1.14-.28,2.95-3.33.93-20.39-1.52-21.81-3.27-1.89-8.01,14.8-4.12,16.17-3.43-.36-3.11,1.21-1.13,3.38-3.31.74-6.17,1.31-9.76,1.34-1.94-2.77-5.32-2.52-6.22.79-6.03-8.11-7.56.94-8.51,6.86-3.28-7.75-6.89-10.57-10.82-8.45-2.02-4.68-5.46-3-7.05,1.26-3.47-.22-7.04-.56-10.69-1.03l-1.06-32.53c-2.62-4.44-5.71-2.17-6.27,2.27l-2.24,31.67c-3.94-2.02-7.78-2.46-11.52-1.31l-1.57-2.35c-6.63,1.08-11.98-.33-16.06-4.26-2.93,2.03-5.35,1.97-7.27-.2l-6.92-1.58c.11-4.8-4.96-5.86-9.12-6.56l-1.16,1.32-3.19-18.23c-1.22-3.26-4.76-3.18-5.82.11.74,6.44.92,12.9.54,19.37l-4.28.21c-10.76,8.08-13.2,1.98-14.65-9.33-.86-1.26-1.73-1.49-3.18-1.75l-.87-12.89-2.32-.82c-3.89-5.39-5.19,2.55-4.62,6.91l-2.36,14.93c-1.21.68-2.33.31-3.38-1.13-7.69.61-12.44-2.76-10.26-10.62l-2.21-2.18c.31-9.58-7.49-16.6-8.55-3.4l.26,21.84c-1.63.88-3.85.64-6.65-.69,1.66-4.6,1.34-13.38-1.7-14.37l-2.64.79-4.03,12.06-1.91.33c-2.04-3.56-3.9-3.44-5.58.36,1.15-5.6,1.27-13.01.63-17.35l-2.26-1.27c7.02-.31,1.8-9.71-2.75-3.4-2.35,7.23-4.19,14.61-5.51,22.13-.91,4.55-2.48,6.91-7.33,6.53-1.62,2.78-4.04,4.26-7.27,4.44-5.85,10.87-9.25,4.39-13.06-3.75-2.02-3.34-5.34-3.7-7.9-.63-3.78-3.14-8.66-6.8-9.73-.23-.63-5.28-.13-10.47.45-15.72l-2.36-1.81-.91-24.12c-4.36-9.36-8.63,7.85-4.02,10.89l-.52,2.84c-2.34.7-2.04,2.25,0,3.38-3.12.42-4.98,7.03-2.26,9.02-1.99,1.88-3.5,2.63-4.51,2.26.71-2.66.75-5.28.11-7.86-7.55-2.46-4.83,12.41-1.24,15.75-2,1.62-3.06,4.72-3.19,9.3-3.95-.93-6.24,2.06-6.88,8.98-.24-4.17-1.4-6.5-3.46-7-1.2-4.41-.99-7.98.62-10.71.17-4.85-.29-13.93-2.48-17.52,1.09-5.28.74-6.74-4.35-9.48l-.07-20.97c.25-1.84-.29-2.96-1.61-3.36-4.05,1.35-5.5,13-2.26,15.79-4.09,3.1-3.23,6.47-1.13,10.15-1.03.65-1.03,1.77,0,3.38-3.26,1.21-4.41,6.95-2.53,9.34l-.86,7.57c-1.99.42-3.87.87-5.63,1.36-.29,3.85-1.05,7.16-2.27,9.91-.68.61-1.38.37-2.26,0-2.08-1.13-2.96-.49-3.87,1.39-.88-5.11-5.15-4.78-6.57-2.26-.3-.86-1.35-1.49-3.1-1.38-2.62-.18-5.15-.32-7.61-.43-1.71,6.02-6.66,5.29-8.54-.11-2.29,0-3.27-1.74-2.93-5.2l-2.36-1.03c-2.03-.22-2.78,1.66-2.26,5.64-.59.57-.59,1.32,0,2.26-.75.19-1.2.42-1.47.62-.06-.17-.15-.32-.24-.34-2.94-.76-5.4-1.6-7.32-3.67-3.62-1.62-8.65-1.55-12.41-.21.33-4.05-1.86-5.94-5.64-3.76.33-2.78-.42-5.27-3.63-5.25-2.21-5.91-4.91-2.26-7.01,1.61.27-5.12-5.75-8.34-5.15-2.55h-2.26c3.14-.63,4.35-6.93,1.13-7.89v-2.26c5.08-1.75.86-8.57-2.59-5.41-.82.75-1.87,9.42-.8,11.05l-2.53.89c-.48,5.65-1.56,7.44-3.23,5.38-3.42,1.45-4.14,1.41-6.99-1.22-1.79-6.67-3.51-5.59-4.73-2.3.36-2.73.55-5.48.56-8.23l-2.26-1.29-2.65.87-5.65,17.74c-3.51-.61-5.71-.98-6.8,3.15-3.69-4.16-6.51-5.46-8.18-3.28,1.31-5.25,2.03-11.57-1.54-13.4,4.79-2.78-1.63-11.42-4.86-5.31l-4.14,13.92c-.74-3.17-3.1-3.6-5.67-1.89-4.79-4.08-7.09-5.39-8.43-3.4.65-3.7.91-7.4.54-11.36l-2.26-.98c2.05-3.92-1.97-4.72-4.5-1.51l-1.85,13.39-2.71,1.01c-1.02-3.5-4.67-4.41-4.7-.31l-.91-1.86c-.74-4.18-.97-8.44-.68-12.78l-1.58.38c-2.56,2.58-4.04,6.42-4.43,11.53-2.18.78-3.6,1.69-4.5,2.53-.05-1.96-1.34-3.4-3.66-3.26-.7-4.26-4.19-5.95-6.67-2.05.23-2.13-.49-3.17-2.17-3.12l.88-8.75c.04-.96-.98-1.02-2.01-.27l-2.48,1.16c-.68,7.17-1.17,10.3-8.2,12.98.92-3.29,1.43-8.22-1.72-9.63,2.07-5.36,1.32-8-2.26-7.89-2.13.63-2.14,1.62,0,2.26-3.28,1.75-2.77,2.45,0,4.51-1.84,3.17-2.68,6.72-2.51,10.66-3.07-3.49-7.75-4.14-8.38.9l-2.64-.27c.77-.8.39-1.93-1.13-3.38.19-1.18-.15-1.61-1.13-1.13-1.92-1.15-2.59-.53-1.13,1.13l-2.26-1.13c.79-1.49-.89-3.41-2.26-2.26-5.17-1.71-9.05-1.46-11.65.74-2.67-8.93-6.79-7.84-11.38-.97-1.1-4.73-4.09-9.04-8.45-4.34l-6.26-2.11c-5.25,4.23-6.4,1.59-6.56-4.35.03-6.08-1.83-18.73-6.56-7.66-2.98-3.25-5.19-2.08-6.63,3.52-1.8-1.62-3.67-1.5-5.62.14-1.65-3.41-4.53-5.16-7.7-2.41-.49-4.21-2.28-5.49-6.15-3.55l-.81-12.01c-1.27-1.47-2.69-2.27-4.48-1.46l-7.34,13.25c-2.43-1.76-4.1-.82-5.9,1.18-4.35-5.65-7.7-.39-9.85,4.2-.96-9-2.04-12.24-9.99-5.36l-.89-35.7c-.13-4.62-1.38-4.86-4.77-2.92l-5.35,23.16c-3.05.92-5.06,3.32-6.02,7.22-1.62-.67-3.59-1.06-5.89-1.18-.4-5.75-2.39-7.99-5.94-6.71l-2.53,11.75c-3.24.25-5.63,2.33-7.15,6.24-2.08-3.58-5.35-2.69-7.5.42-1.12-4.78-4.9-6.16-7.81-1.77-2.29-3.39-4.29-2.29-6.74.09.12-5.4-3.64-5.68-6.94-2.09l-2.03-27.19c-1.57-1.14-2.93-1.95-4.63-.79l-4.32,18.04-1.86.08c-4.26,5.98-7.16,5.31-7.5-2.58-1.97-3.1-5.27-2.37-6.76.87-2.6-3.39-5.3-2.32-6.1,1.66-.34-3.94-1.59-15.37-6.4-9.2l-3.34,13.28c-2.79-1.65-4.29-.71-6.11,1.48-1.16-3.98-4.71-4.49-7.84-1.98-.52-5.44-4.99-5.97-6.93-.79-1.67-2.98-4.59-3.22-6.32-.14.14-5.21-3.32-10.15-6.09-3.96l-1.35-19.34c-1.6-1.09-3-1.84-4.63-.64l-3.07,16.8c-1.03-2.68-2.98-4.48-5.67-2.56l-3.01,11.53c-2.15-6.98-6.49-6.6-9.02-.17l-2.1,1.84c.23-7.32-1.89-9.94-6.37-7.87.89-2.16-.45-4.59-1.57-5.8.15-.11.3-.25.43-.43,1.36-4-1.3-14.9-5.64-9.02-1.93.99-2.5,2.32-2.13,4.32-7.46-8.32-12.52,2.08-12.55,10.28-4.03-1.05-5.01,1.59-6.1,4.81-.56-7.22-2.94-8.31-4.64-5.46.65-3.36.91-6.74.59-10.41l-2.26-1.29-2.69.51-3.19,7.98c1.02-4.48.86-9.98-2.01-11.31,4.07-2.3-.83-7.15-4.49-5.37l-2.61,8.97c.32-4.98-.69-8.99-3.05-12.05,3.4-1.76,3.14-3.67,0-5.64,2.67-2.5.69-5.37-2.26-3.38-2.37-.52-3.12.99-2.26,4.51l-2.68.96-3.16,14.01-.93-27.06c-.28-1.42-1.35-4.88-2.25-4.83-5.13.02-8.09,11.15-6.77,15.79-2.51.22-2.51,1.72,0,4.51l-2.55,1.07-5.52,26.24c-3.65-.14-5.81,2.3-6.49,7.34-.27-5.64-2.16-8.13-5.65-7.5-.29-3.26-4.06-4.57-5.57-1.65-3.47-2.64-6.85-.09-10.13,7.64.11-7.96-3.55-17.25-8.95-5.69l-4.34-17.84c-6.55-13.61-11.42,17.76-11.74,22.8l-1.09-.02c.54-6.3-.47-17.83-7.24-9.05.62-7.47-1.38-10.72-6.01-9.73-.16-9.32-11.01-12.07-9.3-2.33l-1.13,1.13c-.59.42-.59,1.18,0,2.26-1.9-.24-2.92,1.1-1.13,2.26-.65,3.9-2.16,6.91-4.51,9.02-1.65-.62-3.07.13-4.28,2.26-3.28-2.33-5.6-.33-7.15,2.84-1.49-4.59-4.01-11.12-8.32-5.09.34-3.46-.6-5.35-2.8-5.65-.73-1.4-2.08-2.41-3.38-3.38,1.51-1.27,1.13-3.15-1.13-5.64.57-3.47-1.7-4.06-4.66-2.47l-3.84,10.26c-1.95,6.6-10.69,7.91-16.58,6.51l-1.99,1.49-.63,1.17c1.12-10.82-6.01-4.89-8.39,1.09l-2.96.58c-.25-2.05-1.14-3-2.68-2.83.14-.69-.24-1.06-1.13-1.13.94-.47.96-.85,0-1.13-1.01-.58-2.14-.95-3.38-1.13,3.56-4.5-1.47-12.99-2.26-6.77-1.48.57-1.08,1.24,0,2.26-2.56.75-4.41,3.24-5.55,7.5.22-4.11.09-5.53-2.34-8.62,1.46-.66,1.15-1.26,0-2.26.98-.38.98-.75,0-1.13,1.68-.87,1.81-1.91,0-2.26,3.38-1.82,2.11-9.66-1.13-11.28,1.96.16.52-5.38-.61-5.52-2.32-.31-5.35,6.52-1.64,7.78l-2.92,2.85-4.25,18.67c-2.04.32-3.87,1.52-4.79,3.45-4.67-1.56-6.61,2.13-6.96,6.32-2.26-4.45-7.11-7.93-9.43-1.81-3.92-8.83-8.16-2.59-9.91,3.64-2.11-9.98-6.92-14.78-11.37-2.53l-.15-6.79c.1-4.69-2.05-5.29-6.28-5.31-.86,0-8.18,14-4.82,15.34-1.11.61-2.24.24-3.38-1.13,5.41-7.21-9.18-8.08-3.38-1.13-2.29.04-3.07,1.15-3.65,3.11-.23-2.39-.59-3.55-3.12-4.24,6.91-6.63-8.73-8.67-3.38-1.13-1.44.7-2.95.7-4.51,0,3.78-1.35.84-11.13-2.14-11.65-3.63-.64-8.1,8.28-4.63,10.52-2.28.3-3.47,2.14-3.55,5.53-.21-3.66-1.29-5.88-3.22-6.65-.45-.95-.83-.97-1.13,0l-2.7.29c-4.66,14.38-5.18,15.15-10.44.28-2.82-2.88-6.85-1.88-12.08,2.98l-4.64,2.09-4.26-13c-2.9-2.96-5.84-1.37-8.81,4.78-.79-13.67-8.94-14.54-12.68-1.2-3.35-14.21-8.04-5.85-11.55,2.59l-2.23-12.26c-.69-2.88-3.28-3.57-5.55-1.7l-7,14.1-3.13-14.66c-1.68-4.29-5.55-3.79-7.36.33l-5.55,16.37c-4.79-12.68-9.41-7.71-12.6,2.18-2.58-1.78-4.42-1.68-5.49,1.51-4.06-3.92-7.42-4.37-10.08-1.37l-2.88-3.27c-4.09-9.36-8.02-10.61-11.78-3.76-5.81-14.28-12.05-11.9-14.1,2.11-3.44-7-6.54-8.11-9.32-3.35-2.52-8.25-6.89-17.47-10.77-3.97-2.56-7.5-5.16-13.25-11.14-4.2-3.98-13.71-10.72-2.45-14.7,4.85l-2.19,1.97-4.77-13.53c-4.11-2.94-6.93.5-8.45,10.34-1.76-7.81-4.54-10.91-8.33-9.29l-5.12,22.37C4.25,384.06,3.58,381.07,0,382.52v153.18h1430.08v-86.64l-.57-7.14ZM1094.37,441.08c.03.72.25,1.51.74,2.34-.48,1.8-1.23,1.42-2.26-1.13.68-.36,1.17-.78,1.52-1.21Z" class="st0"/>
</svg>
