<?xml version="1.0" encoding="UTF-8"?><svg id="Layer_1" xmlns="http://www.w3.org/2000/svg" viewBox="0 0 1430.14 535.68"><defs><style>.cls-1{fill:#f6ede7;}</style></defs><path class="cls-1" d="M1430.14,362.15c-15.89-10.3-31.45-22.14-48.88-29.5l-.06-.09c-4.65-1.53-20.7-17.12-23.64-16.49-1.06.23-2.06,1.88-3.6,1.97-3.64.22-18.76-16.12-24.26-19.14-6.39-3.51-4.45.76-9.65,1.09-15.75,1-18.05-6.4-28.32-13.31-4.06-2.73-9.69-4.83-13.82-7.61-5.56-3.75-17.71-16.37-21.57-17.9-3.82-1.52-7.85.24-12.07-1.46-2.99-1.21-5.17-5.61-7.58-7.08-2.29-1.39-4.82-1.28-7.33-2.82-5.56-3.41-11.32-14.55-19.22-13.61-4.18.5-6.83,3.49-9.63,4.02-13.41,2.51-36.38-17.83-48.24-23.85-5.84-2.96-10.19-2.12-14.3-7.69-2.75-3.73-3.66-8.28-5.64-12.41-1.86-3.9-1.17-3.43-4.51-6.77-2.38-2.37-3.45-4.95-7.89-4.51-13.99-10.91-14.07-10.99-31.58-3.38-6.33-3.49-37.7-12.51-44.54-12.39-27.31.46-59.6-10.15-87.49-16.3-11.22-2.47-25.48-11.61-35.17-16.68-3.12-1.63-15.23-8.25-17.46-8.58-3.62-.55-15.07,7.5-19.48,9.43-1.67.73-3.49.2-4.5.53-1.23.4-1.37.63-2.26,1.13-9.84,3.01-16.03-5.81-23.62-7.39-3.78-.79-7.12-.11-10.65-.62-15.66-2.26-38.32-26.32-53.89-32.95-6.12-3.66-9.42,2.91-8.83,8.26-1.04.66-2.18.92-3.38,1.13-1.72.29-3.36-.47-5.17,1.02-2.2,1.81-1.17,3.85-1.59,5.75-.78,3.5-.56,6.68-1.13,9.02-1.54,6.34-14.09,2.76-18.44.96-4.11-1.7-9.47-6.39-13.15-7.28-2.32-.56-4.34.87-4.49.69-.24-.29.63-2.26-.72-3.49-1.45-1.33-7.84-4.23-10.47-6.21-12.21-9.15-19.42-15.75-33.53-22.86-4.16-2.1-10.1-3.38-13.83-5.34-13.35-6.99-25.98-22.36-39.22-29.58-7.2-3.93-15.86-4.92-23.67-9.03-12.92-6.8-30.7-23.76-42.43-28.62-5.43-2.25-13.64-3.09-19.46-5.35-4.95-1.93-11.73-7.45-16.31-6.81-7.77,1.08-17.78,16.53-20.3,23.68-10.15-5.82-22.85-8.78-32.37-14.43-3.19-1.9-5.6-6.04-9.05-6.78-3.93-.85-6.56,1.13-9.89,1.01-4.68-.17-10.18-.93-15.23-1.22-.35-.02-3.12-2.23-4.48-1.11-.45.37-.97,8.58-2.29,10.13-.41.08-1.88,2.1-3.38,2.26-.12.01-1.56-1.74-2.22-1.14-2.46,2.24-4.24,14.28-5.42,17.74-2.44,7.15-10.91,17-13.26,23.96-1.18,3.5-.56,9.24-2.78,12.45-.44.64-2.57,1.46-3.38,2.26-3.6,3.52-2.93,9.85-4.76,14.97-.52,1.45-3.33,7.1-4.26,7.58-1.52.79-4.42.33-7.34,2.25-3.49,2.29-7.43,8.94-11.27,12.41-8.36,7.58-19.25,12.48-25.38,21.43-.74,1.08-1.68,2.6-2.26,3.38-4.76,6.52-27.76,24.2-35.34,28.39-4.11,2.27-13.36,4.73-15.42,7.7-1.84,2.66-1.86,6.5-4.51,9.02-10.53,3.44-20.66,8.07-32.26,8.92-2.17.16-4.59-1.45-6.45-1.11-.5.09-5.1,6.88-6.41,7.98-1.49,1.31-2.17,2.18-3.38,3.38-6.68,2.8-10.66,10.29-16.55,14.46-3.42,2.42-9.99,5.59-13.9,6.96-10.71,3.77-13.23.85-22.56,10.15-3.03,3.02-7.69,8.26-9.02,12.41-5.57,17.38-8.65,40.25-13.53,58.65-4.53-.83-5.79,2.93-7.89,4.51-8.27,6.19-15.23,10.74-24.23,15.83-1.46.82-3.51,1.81-5.1,2.22-.72.19-.86.93-2.23.52-3.32-1.02-11.92-7.27-16.54-9.38-14.29-6.54-36.3-11.19-52.08-14.46-22.16-4.6-44.84-6.85-66.75-12.76v96.99c.4.27.72.6,1.01.94-.31.06-.64.15-1,.3v153.18h1430.08v-86.64l-.19-2.36.24,1.18v-85.71ZM1424.45,445.65s.04-.05.06-.08c0,.03,0,.05,0,.08-.02,0-.04,0-.05,0ZM1422.28,423.7c-.06,0-.13.03-.19.05l.15-.69c.01.21.03.43.05.64ZM1410.99,444.56s-.07,0-.11.01l.07-.09.04.08ZM1397.5,442.31s-.05,0-.08,0l.02-.09.06.08ZM1369.39,444.7c-.09,0-.19-.02-.28-.03l.13-.19.15.23ZM1330.84,331.6c.04.14.02.31,0,.47v-.47ZM1309.38,431.42c-.08-.06-.18-.1-.26-.16l.33-.34c-.03.17-.05.33-.07.49ZM1308.06,366.01c-.78-.45-1.49-.98-2.03-1.69.64.58,1.32,1.14,2.03,1.69ZM1304.94,429.75c-.18-.04-.37-.08-.55-.12l.55-.97v1.08ZM1284.63,346.43h0c.08.15.16.29.23.43-.83-.96-1.66-1.91-2.52-2.85.81.79,1.56,1.6,2.29,2.42ZM1268.46,345.25c.19.12.47.33.82.59-.6-.05-1.16-.12-1.65-.21,0-.01.04-.05.04-.08l.79-.3ZM1256.43,427.57l.1.48c-.16,0-.32.02-.47.02l.37-.5ZM1231.41,433.58c-.23-.08-.45-.16-.69-.26.44-.1.62,0,.69.26ZM1217.49,429.37c-.08-.04-.16-.07-.24-.09l.29-.58-.05.68ZM1212.41,413.51s.03,0,.05,0v.03l-.05-.03ZM1181.96,303.42c-.06-.03-.27-.49-.51-1.03l.51,1.03ZM1162.31,434.99c-.08-.01-.16-.03-.24-.03l.2-.61.05.65ZM1157.12,421.21l-.11-.09.15-.31-.04.39ZM1151.54,409.53c0-.08.11-.19.23-.34l-.26,1.4c-.01-.36-.02-.72.02-1.06ZM1142.8,417.25c-.11.02-.22.03-.32.06.01-.34.01-.68.04-1.02l.27.96ZM1138.02,442.22c.08.08.16.15.24.22-.11.02-.22.05-.33.08.03-.11.06-.22.09-.3ZM1126.71,408.6s-.06-.04-.08-.06l.11-.14-.02.2ZM1112.09,428.71l.27.68c-.12.03-.24.06-.36.09l.09-.77ZM1107.96,438.78c-.13.33-.24.68-.38,1,.01-.31.01-.62,0-.92.13,0,.26-.04.39-.07ZM1086.41,437.41c-.17,0-.33-.02-.49-.02l.23-.78.27.81ZM1078.83,441.25s-.08-.03-.11-.04l.09-.11.03.15ZM1074.36,436.96c-.07-.03-.15-.04-.22-.08l.14-.28.08.36ZM1059.06,434.33c.05.34-.02.71-.13,1.12-.58-.26-1.2-.46-1.85-.63.5-.36,1.13-.55,1.97-.49ZM1050,434.44s-.06,0-.09.01l.12-.12-.03.11ZM1038.75,426.45s0,0,0,0h0s0,0,0,0ZM1035.34,423.34s-.07-.04-.11-.06l.14-.23-.04.29ZM1024.11,416.29c-.03.29-.07.57-.11.85v-1.99s.07-.03.11-.04v1.18ZM1020.86,296.67s0,.1-.01.15c0-.05,0-.1.01-.15ZM1020.67,301.39c.01-.43.02-.88.02-1.36,0,.53,0,1.03-.02,1.51v-.15ZM1019.53,307.03c-.17.66-.62,1.05-1.58.98.64,0,1.16-.33,1.58-.98ZM1008.91,426.76c-.05-.04-.11-.09-.16-.14l.13-.21.03.34ZM1005.5,421.04s-.07-.03-.1-.04l.08-.22v.26ZM998.31,312.73c-.59-.12-1.23-.22-1.31-.29.62.1,1.06.2,1.31.29ZM995.06,308.62c-.08-.01-.16-.03-.24-.04-.1-.3-.03-.63-.07-.65.1.26.2.48.31.69ZM990.42,292.51c-.21.27-.48.5-.88.63h.01c-.47.16-.92.25-1.35.29.8-.33,1.54-.63,2.22-.92ZM984.07,433.5c-.06-.05-.12-.1-.17-.15l.15-.17.03.32ZM981.21,276.35c-.82-.2-1.51-.48-2.1-.82.62.28,1.31.55,2.1.82ZM970.1,312.77h0c-.03.15-.05.29-.07.43-.18.37-.36.78-.52,1.21l-.19-.13c.25-.55.51-1.06.78-1.51ZM959.78,424.05c-.15-.12-.3-.23-.44-.34l.44-.66v1ZM939.62,419.96c-.06,0-.12.03-.18.04l.07-.32.11.28ZM935.59,408.23l-.69.17c.03-.38.07-.76.09-1.13.25.3.44.63.6.97ZM913.55,412.86s0,.03,0,.04c-.02.2-.05.49-.09.83l.09-.87ZM902.26,418.55l.04.32c-.11.05-.23.09-.35.14l.31-.46ZM898.24,401.64c-.15,0-.3,0-.46,0,.01-.38.02-.76-.02-1.13.14.28.31.67.48,1.14ZM873.06,412.11c-.07-.01-.14-.03-.21-.04l.1-.27.1.32ZM868.02,412.01c-.12.03-.24.07-.36.1.06-.11.13-.2.19-.32l.16.22ZM860.74,282.5c-.28-.27-.55-.55-.82-.83.26.22.54.5.82.83ZM828.91,389.87s-.08-.01-.12-.01l.15-.62c-.02.16-.03.38-.03.63ZM821.93,371.9l.04.06s-.07-.1-.11-.15c.02.03.05.06.07.09ZM796.22,377.95l.02.35c-.06-.02-.12-.03-.18-.05l.16-.3ZM821.97,371.95v-.02c.06.09.14.18.22.28-.08-.09-.15-.17-.22-.26ZM768.03,388.19s-.05-.02-.08-.03l.08-.06s0,.06,0,.09ZM757.86,351.99c-.08.01-.17.03-.25.05l.27-1.15c0,.37,0,.73-.01,1.1ZM739.88,382.5s-.03,0-.04,0v-.03s.04.03.04.03ZM734.38,375.3c-.1-.02-.21-.02-.31-.03l.14-.7.17.73ZM689.14,361.83c-.08-.02-.15-.04-.23-.06l.17-.73.05.79ZM681.27,380.35h-.1s.02-.08.03-.13l.06.13ZM648.48,383.63s-.02,0-.03,0c0,0,.01-.02.02-.03v.03ZM620.31,376.19c-.06-.01-.11-.02-.17-.03l.14-.45.03.48ZM613.57,358.54c-.07-.02-.14-.04-.21-.05l.15-.83.06.88ZM604.59,372.49s-.07,0-.11,0l.04-.17.07.17ZM585.33,378.03s-.08-.01-.12-.02c.04-.01.07-.04.11-.05v.07ZM575.89,362.46c-.22.21-.45.47-.68.77-.01-.36-.02-.72-.02-1.07.25.13.48.23.7.3ZM551.52,375.87s-.06,0-.1,0l.08-.16.02.17ZM538.95,357.36c-.37-.14-.75-.24-1.14-.29.06-.18.12-.37.19-.55.33-.1.65.27.95.83ZM529.98,348.7c.08-.07.14-.15.21-.22,0,.12.01.24.01.37-.08-.05-.14-.1-.22-.15ZM491.77,380.47c-.08-.03-.17-.04-.25-.07l.21-.21c.01.09.03.18.04.27ZM486.74,377.13c-.06,0-.12-.01-.18-.02l.1-.29.08.31ZM437.61,366.98c-.09-.04-.17-.08-.27-.11l.25-.19.02.3ZM392.39,370.14s.06-.07.1-.11c0,.06,0,.12,0,.18-.03-.03-.07-.05-.1-.08ZM391.34,363.37s0-.07,0-.1c.01,0,.02.01.03.02-.01.03-.02.06-.03.09ZM364.3,379.07c.3.18.6.33.89.47l-.89.66c-.05-.4-.12-.82,0-1.14ZM348.5,377.94c.01.05.05.11.09.17-.06-.02-.12-.05-.19-.07-.32-.19-.67-.34-1.01-.49l1.11-.74c0,.35-.07.79,0,1.13ZM342.86,368.9c.06-.01.13-.04.2-.08-.08.22-.16.47-.22.78-.01-.24-.02-.48.01-.7ZM334.87,369.02s.06-.03.09-.04c0,.04,0,.08,0,.13-.03-.03-.06-.05-.09-.08ZM334.87,365.63s.06-.05.1-.07c0,.03,0,.07,0,.1-.04,0-.06-.02-.1-.03ZM334.97,367.83s0,.07,0,.11c-.04-.02-.06-.03-.1-.05.04-.02.06-.04.1-.06ZM278.05,375.26c-.28-.04-.57-.07-.88-.1.22-.13.51-.12.88.1ZM266.16,383.6s-.07-.02-.11-.03c.04,0,.07-.02.11-.03,0,.02,0,.04,0,.05ZM249.19,385.92s.06-.04.09-.05c0,.03,0,.06,0,.09-.03-.01-.06-.02-.09-.04ZM218.71,382.74c-.24-.05-.48-.08-.73-.09.09-.08.19-.17.26-.23.14,0,.3.12.47.32ZM198.07,374.92c-.12-.02-.25-.04-.37-.05l.24-.35.13.4ZM174.25,372.26s0,0,0,0h0s0,0,0,0ZM73.99,375.84c-.07,0-.13,0-.2,0,.03-.07.05-.13.08-.2.04.07.08.13.12.2ZM63.83,367.9c-.05,0-.1,0-.16,0,.01-.06.03-.11.04-.17.04.05.08.11.11.16ZM12.87,364.64c-.26-.08-.53-.14-.81-.16.12-.42.23-.84.36-1.25l.45,1.41ZM23.69,362.86c.21-.49.39-.77.56-.77l.26.76c-.28-.04-.56-.03-.82.01ZM42.79,364.19l.62-.96c.36.19.68.54.97.99-.52-.17-1.05-.17-1.58-.04ZM53.8,365.92l.33-.44c.06.17.11.34.17.51-.16-.04-.32-.07-.49-.07ZM112.03,385.04c.06-.13.13-.25.19-.39.09.13.2.26.3.39-.16,0-.33-.01-.49,0ZM234.52,383.67l-.63.07c.22-.5.44-.96.7-1.34.34.1.77-.09,1.13,0-.06.28-.07.73-.05,1.28,0,0-.01,0-.02,0-.45-.95-.83-.97-1.13,0ZM242.12,384.86c.02-.09.04-.18.07-.28.08.07.14.15.23.21-.11.01-.2.05-.3.07ZM253.44,386.03c.02-.13.05-.26.08-.38.06.09.11.18.18.28-.09.04-.17.07-.26.11ZM257.36,386.76c.02.13.05.26.07.41-.12-.04-.22-.08-.35-.12.1-.1.19-.19.28-.29ZM263.41,388.22c.05-.14.1-.27.15-.41.09.12.18.24.29.37-.16,0-.29.02-.44.04ZM267.4,389.06c0,.15.01.3.01.45-.06-.07-.12-.13-.18-.2.06-.09.11-.17.17-.25ZM270.21,390.62c.03-.12.06-.24.09-.36.09.07.19.14.3.18-.13.07-.27.13-.4.17ZM331.26,356.84c.02-.11.04-.21.07-.31.06.02.1.06.17.08l-.23.23ZM333.13,348.83c-.15-.02-.3-.01-.45.02.02-.09.03-.18.05-.26h1.1c.01.31.01.63.01.94-.23-.4-.48-.67-.71-.7ZM333.89,354.34s0,.08,0,.12c-.05-.03-.1-.07-.16-.1.06,0,.1-.01.15-.02ZM335.03,371.2c0,.1,0,.21,0,.31-.06-.07-.11-.15-.17-.22.06-.03.11-.06.16-.09ZM342.4,372.54c.05-.13.09-.25.13-.37.07.07.15.15.23.23-.12.04-.24.1-.36.14ZM344.3,368.03c.17-.11.34-.2.47-.26.11.25.22.51.35.78,0,.09,0,.17,0,.26-.26-.38-.54-.65-.82-.78ZM345.13,376.75c0,.06,0,.12,0,.18-.04,0-.07-.02-.11-.02.04-.05.08-.11.11-.16ZM348.4,379.17c.45-.23.69-.43.71-.62.24.18.47.36.52.52.13.41.27.82.41,1.22-.16-.01-.33,0-.51.01.14-.69-.24-1.06-1.13-1.13ZM355.03,382.58c.21-.49.32-.94.24-1.26.15.03.29.04.43.05-.2.39-.37.79-.53,1.18l-.14.03ZM363.57,381.37s.03,0,.04,0l-.05.09s0-.06,0-.09ZM394.87,372.26c.38.05.76.1,1.01.05l.12,1.28c-.08-.02-.15-.04-.23-.06-.24-.46-.55-.88-.9-1.27ZM418.32,379.16c-.17-.06-.33-.1-.49-.14.19-.34.39-.69.6-1.08.32.1.62.16.89.19-.32.36-.65.71-1,1.03ZM422.72,370.68c.02-.2.03-.39.05-.58.02.01.03.03.05.04-.03.19-.07.36-.11.54ZM423.47,367.86c.08-.17.17-.34.25-.51.07.17.13.34.24.53-.17-.02-.33-.03-.49-.02ZM424.11,365.47c0-.39,0-.76-.02-1.08l.64-.64c.08-.06.16-.13.23-.2.03.3.07.61.13.94l-.98.98ZM481.04,377.73l.54-.91.04.93c-.19-.02-.39-.03-.58-.01ZM509.49,353.29c.02-.07.03-.15.05-.23.04.05.08.1.13.15l-.18.07ZM515.75,332.99c.31-.58.59-1.04.8-1.3l.03,1.25s-.1-.03-.14-.03c-.23,0-.46.03-.69.08ZM525.14,349.95c.07-.22.14-.44.21-.66.04.18.06.35.11.54l-.32.12ZM527.47,345.29c.18-.39.31-.79.36-1.19.25.26.5.51.74.77-.27.11-.56.25-.85.45-.09-.02-.16-.02-.24-.03ZM530.15,354.24c0,.13.01.25.02.38-.07-.09-.13-.19-.2-.28.06-.03.11-.06.17-.1ZM540.24,362.71v.14s-.07-.05-.11-.06c.04-.02.07-.05.11-.08ZM547.56,365.7l.57-1.29v1.26l-.11-.06-.46.09ZM656.29,369.35l.1-.4.06.4c-.05,0-.1,0-.16,0ZM876.2,412.92c-.18-.06-.35-.1-.53-.15l.65-.98c.3.25.57.52.83.79-.31-.01-.64.08-.95.34ZM880.62,416.26s0-.04.01-.06c.03.04.05.07.08.11l-.1-.05ZM881.85,415.18c-.25-.15-.47-.26-.68-.36.28-.23.66-.5.8-.77.38.37.74.77,1.13,1.13.02.61.21,1.17.44,1.71-.17-.19-.35-.38-.56-.58.19-1.18-.15-1.61-1.13-1.13ZM884.29,419.45c0,.08-.01.17-.02.26l-.16-.02c.07-.08.13-.16.18-.24ZM900.06,409.07c.01.19.03.37.03.56-.07-.04-.13-.08-.2-.11.06-.15.11-.3.16-.45ZM912.23,405.05l.2-1.16c.23.23.41.49.57.75-.22.09-.46.21-.69.38l-.07.03ZM936.89,419.21c.11.16.22.31.35.46,0,.46,0,.92,0,1.38l-.12-.25c-.09-.53-.15-1.06-.23-1.59ZM951.9,409.84v.29l-.11-.05c.05-.09.07-.16.11-.25ZM954.96,421.52l.31-.72v.72c-.1,0-.21-.01-.31,0ZM976.71,419.03v.13s-.06-.05-.1-.06c.04-.02.07-.05.1-.07ZM979.75,431.49l.33-.55v.52c-.11,0-.22.02-.33.03ZM1001.14,414.12l.39-1.23v1.19l-.1-.06-.29.1ZM1020.43,420.85c.02-.1.04-.21.07-.3.04.08.07.18.11.24l-.18.06ZM1022.94,425.28s0,.01,0,.02h-.07s.04-.02.07-.02ZM1024.9,425.3l.21-.69c0,.22,0,.44.03.69h-.23ZM1069.94,430.96c.13-.38.25-.77.4-1.14l.11,1.21-.19-.08c-.12-.01-.21,0-.32,0ZM1091.7,437.72c-.2-.01-.38-.02-.58-.04.31-.42.55-.79.65-1.09.26.37.45.74.59,1.13-.21-.01-.43-.01-.66,0ZM1092.93,442.23c0,.08,0,.15,0,.23-.03-.07-.05-.12-.08-.18.03-.01.05-.03.07-.04ZM1094.91,444.01c.02-.32.03-.63.06-.91.05.1.1.2.16.3-.07.25-.14.44-.21.61ZM1104.54,439.64c.26-.34.51-.61.77-.79v1.15s-.05-.02-.07-.03c-.25-.14-.48-.24-.7-.33ZM1115.28,428.73c.04-.41.1-.8.19-1.16.04-.18.08-.34.13-.52l-.19,1.65s-.08.02-.12.03ZM1118.66,411.85c.01-.08.02-.15.04-.23.03.06.06.11.1.17-.05.02-.09.04-.13.06ZM1119.83,398.33s.01-.1.02-.14c.02.02.05.05.07.07-.03.02-.06.05-.09.07ZM1121.92,382.58c.1-.47.2-.9.31-1.25.11.42.2.85.29,1.28-.11-.05-.22-.1-.35-.14-.09.03-.17.07-.26.11ZM1129.32,439.31c.23,1.4.49,2.77.79,4.04,0,.17.04.6.1,1.21-.05-.01-.09-.04-.14-.05-.52-1.89-.75-3.62-.75-5.2ZM1144.82,424.96l.03.4s-.08-.01-.11-.02c.03-.13.06-.25.09-.38ZM1148.92,423.37c.03-.15.07-.31.11-.48.07.06.13.14.21.19-.11.1-.21.19-.32.29ZM1151.37,414.1s.01-.07.02-.1c.04.02.07.05.12.07-.05,0-.09.03-.13.03ZM1227.81,418.71l.43-1.3v1.2s-.03-.02-.04-.02l-.39.12ZM1266.61,406.09c.55-.04,1.08.08,1.11.03l.08,1.23-.13-.05c-.38-.53-.73-.92-1.06-1.21ZM1417.1,443.52c.09-.15.18-.31.27-.48.1.12.2.24.31.36-.2.04-.39.09-.58.13ZM1418.33,439.98c.02-.07.04-.13.07-.2.13.1.26.18.41.24-.17-.02-.33-.03-.48-.04Z"/></svg>
