<?xml version="1.0" encoding="UTF-8"?><svg id="Layer_1" xmlns="http://www.w3.org/2000/svg" viewBox="0 0 1430.08 202.77"><defs><style>.cls-1{fill:#D3BEA6;}</style></defs><path class="cls-1" d="M1429.51,108.99c-2.83-1.54-5.15,1.9-2.81,3.75-.43.12-.8.28-1.01.52-.03-.08-.06-.16-.11-.24-.12-.23-.58-.28-1.14-.28,2.95-3.33.93-20.39-1.52-21.81-3.27-1.89-8.01,14.8-4.12,16.17-3.43-.36-3.11,1.21-1.13,3.38-3.31.74-6.17,1.31-9.76,1.34-1.94-2.77-5.32-2.52-6.22.79-6.03-8.11-7.56.94-8.51,6.86-3.28-7.75-6.89-10.57-10.82-8.45-2.02-4.68-5.46-3-7.05,1.26-3.47-.22-7.04-.56-10.69-1.03l-1.06-32.53c-2.62-4.44-5.71-2.17-6.27,2.27l-2.24,31.67c-3.94-2.02-7.78-2.46-11.52-1.31l-1.57-2.35c-6.63,1.08-11.98-.33-16.06-4.26-2.93,2.03-5.35,1.97-7.27-.2l-6.92-1.58c.11-4.8-4.96-5.86-9.12-6.56l-1.16,1.32-3.19-18.23c-1.22-3.26-4.76-3.18-5.82.11.74,6.44.92,12.9.54,19.37l-4.28.21c-10.76,8.08-13.2,1.98-14.65-9.33-.86-1.26-1.73-1.49-3.18-1.75l-.87-12.89-2.32-.82c-3.89-5.39-5.19,2.55-4.62,6.91l-2.36,14.93c-1.21.68-2.33.31-3.38-1.13-7.69.61-12.44-2.76-10.26-10.62l-2.21-2.18c.31-9.58-7.49-16.6-8.55-3.4l.26,21.84c-1.63.88-3.85.64-6.65-.69,1.66-4.6,1.34-13.38-1.7-14.37l-2.64.79-4.03,12.06-1.91.33c-2.04-3.56-3.9-3.44-5.58.36,1.15-5.6,1.27-13.01.63-17.35l-2.26-1.27c7.02-.31,1.8-9.71-2.75-3.4-2.35,7.23-4.19,14.61-5.51,22.13-.91,4.55-2.48,6.91-7.33,6.53-1.62,2.78-4.04,4.26-7.27,4.44-5.85,10.87-9.25,4.39-13.06-3.75-2.02-3.34-5.34-3.7-7.9-.63-3.78-3.14-8.66-6.8-9.73-.23-.63-5.28-.13-10.47.45-15.72l-2.36-1.81-.91-24.12c-4.36-9.36-8.63,7.85-4.02,10.89l-.52,2.84c-2.34.7-2.04,2.25,0,3.38-3.12.42-4.98,7.03-2.26,9.02-1.99,1.88-3.5,2.63-4.51,2.26.71-2.66.75-5.28.11-7.86-7.55-2.46-4.83,12.41-1.24,15.75-2,1.62-3.06,4.72-3.19,9.3-3.95-.93-6.24,2.06-6.88,8.98-.24-4.17-1.4-6.5-3.46-7-1.2-4.41-.99-7.98.62-10.71.17-4.85-.29-13.93-2.48-17.52,1.09-5.28.74-6.74-4.35-9.48l-.07-20.97c.25-1.84-.29-2.96-1.61-3.36-4.05,1.35-5.5,13-2.26,15.79-4.09,3.1-3.23,6.47-1.13,10.15-1.03.65-1.03,1.77,0,3.38-3.26,1.21-4.41,6.95-2.53,9.34l-.86,7.57c-1.99.42-3.87.87-5.63,1.36-.29,3.85-1.05,7.16-2.27,9.91-.68.61-1.38.37-2.26,0-2.08-1.13-2.96-.49-3.87,1.39-.88-5.11-5.15-4.78-6.57-2.26-.3-.86-1.35-1.49-3.1-1.38-2.62-.18-5.15-.32-7.61-.43-1.71,6.02-6.66,5.29-8.54-.11-2.29,0-3.27-1.74-2.93-5.2l-2.36-1.03c-2.03-.22-2.78,1.66-2.26,5.64-.59.57-.59,1.32,0,2.26-.75.19-1.2.42-1.47.62-.06-.17-.15-.32-.24-.34-2.94-.76-5.4-1.6-7.32-3.67-3.62-1.62-8.65-1.55-12.41-.21.33-4.05-1.86-5.94-5.64-3.76.33-2.78-.42-5.27-3.63-5.25-2.21-5.91-4.91-2.26-7.01,1.61.27-5.12-5.75-8.34-5.15-2.55h-2.26c3.14-.63,4.35-6.93,1.13-7.89v-2.26c5.08-1.75.86-8.57-2.59-5.41-.82.75-1.87,9.42-.8,11.05l-2.53.89c-.48,5.65-1.56,7.44-3.23,5.38-3.42,1.45-4.14,1.41-6.99-1.22-1.79-6.67-3.51-5.59-4.73-2.3.36-2.73.55-5.48.56-8.23l-2.26-1.29-2.65.87-5.65,17.74c-3.51-.61-5.71-.98-6.8,3.15-3.69-4.16-6.51-5.46-8.18-3.28,1.31-5.25,2.03-11.57-1.54-13.4,4.79-2.78-1.63-11.42-4.86-5.31l-4.14,13.92c-.74-3.17-3.1-3.6-5.67-1.89-4.79-4.08-7.09-5.39-8.43-3.4.65-3.7.91-7.4.54-11.36l-2.26-.98c2.05-3.92-1.97-4.72-4.5-1.51l-1.85,13.39-2.71,1.01c-1.02-3.5-4.67-4.41-4.7-.31l-.91-1.86c-.74-4.18-.97-8.44-.68-12.78l-1.58.38c-2.56,2.58-4.04,6.42-4.43,11.53-2.18.78-3.6,1.69-4.5,2.53-.05-1.96-1.34-3.4-3.66-3.26-.7-4.26-4.19-5.95-6.67-2.05.23-2.13-.49-3.17-2.17-3.12l.88-8.75c.04-.96-.98-1.02-2.01-.27l-2.48,1.16c-.68,7.17-1.17,10.3-8.2,12.98.92-3.29,1.43-8.22-1.72-9.63,2.07-5.36,1.32-8-2.26-7.89-2.13.63-2.14,1.62,0,2.26-3.28,1.75-2.77,2.45,0,4.51-1.84,3.17-2.68,6.72-2.51,10.66-3.07-3.49-7.75-4.14-8.38.9l-2.64-.27c.77-.8.39-1.93-1.13-3.38.19-1.18-.15-1.61-1.13-1.13-1.92-1.15-2.59-.53-1.13,1.13l-2.26-1.13c.79-1.49-.89-3.41-2.26-2.26-5.17-1.71-9.05-1.46-11.65.74-2.67-8.93-6.79-7.84-11.38-.97-1.1-4.73-4.09-9.04-8.45-4.34l-6.26-2.11c-5.25,4.23-6.4,1.59-6.56-4.35.03-6.08-1.83-18.73-6.56-7.66-2.98-3.25-5.19-2.08-6.63,3.52-1.8-1.62-3.67-1.5-5.62.14-1.65-3.41-4.53-5.16-7.7-2.41-.49-4.21-2.28-5.49-6.15-3.55l-.81-12.01c-1.27-1.47-2.69-2.27-4.48-1.46l-7.34,13.25c-2.43-1.76-4.1-.82-5.9,1.18-4.35-5.65-7.7-.39-9.85,4.2-.96-9-2.04-12.24-9.99-5.36l-.89-35.7c-.13-4.62-1.38-4.86-4.77-2.92l-5.35,23.16c-3.05.92-5.06,3.32-6.02,7.22-1.62-.67-3.59-1.06-5.89-1.18-.4-5.75-2.39-7.99-5.94-6.71l-2.53,11.75c-3.24.25-5.63,2.33-7.15,6.24-2.08-3.58-5.35-2.69-7.5.42-1.12-4.78-4.9-6.16-7.81-1.77-2.29-3.39-4.29-2.29-6.74.09.12-5.4-3.64-5.68-6.94-2.09l-2.03-27.19c-1.57-1.14-2.93-1.95-4.63-.79l-4.32,18.04-1.86.08c-4.26,5.98-7.16,5.31-7.5-2.58-1.97-3.1-5.27-2.37-6.76.87-2.6-3.39-5.3-2.32-6.1,1.66-.34-3.94-1.59-15.37-6.4-9.2l-3.34,13.28c-2.79-1.65-4.29-.71-6.11,1.48-1.16-3.98-4.71-4.49-7.84-1.98-.52-5.44-4.99-5.97-6.93-.79-1.67-2.98-4.59-3.22-6.32-.14.14-5.21-3.32-10.15-6.09-3.96l-1.35-19.34c-1.6-1.09-3-1.84-4.63-.64l-3.07,16.8c-1.03-2.68-2.98-4.48-5.67-2.56l-3.01,11.53c-2.15-6.98-6.49-6.6-9.02-.17l-2.1,1.84c.23-7.32-1.89-9.94-6.37-7.87.89-2.16-.45-4.59-1.57-5.8.15-.11.3-.25.43-.43,1.36-4-1.3-14.9-5.64-9.02-1.93.99-2.5,2.32-2.13,4.32-7.46-8.32-12.52,2.08-12.55,10.28-4.03-1.05-5.01,1.59-6.1,4.81-.56-7.22-2.94-8.31-4.64-5.46.65-3.36.91-6.74.59-10.41l-2.26-1.29-2.69.51-3.19,7.98c1.02-4.48.86-9.98-2.01-11.31,4.07-2.3-.83-7.15-4.49-5.37l-2.61,8.97c.32-4.98-.69-8.99-3.05-12.05,3.4-1.76,3.14-3.67,0-5.64,2.67-2.5.69-5.37-2.26-3.38-2.37-.52-3.12.99-2.26,4.51l-2.68.96-3.16,14.01-.93-27.06c-.28-1.42-1.35-4.88-2.25-4.83-5.13.02-8.09,11.15-6.77,15.79-2.51.22-2.51,1.72,0,4.51l-2.55,1.07-5.52,26.24c-3.65-.14-5.81,2.3-6.49,7.34-.27-5.64-2.16-8.13-5.65-7.5-.29-3.26-4.06-4.57-5.57-1.65-3.47-2.64-6.85-.09-10.13,7.64.11-7.96-3.55-17.25-8.95-5.69l-4.34-17.84c-6.55-13.61-11.42,17.76-11.74,22.8l-1.09-.02c.54-6.3-.47-17.83-7.24-9.05.62-7.47-1.38-10.72-6.01-9.73-.16-9.32-11.01-12.07-9.3-2.33l-1.13,1.13c-.59.42-.59,1.18,0,2.26-1.9-.24-2.92,1.1-1.13,2.26-.65,3.9-2.16,6.91-4.51,9.02-1.65-.62-3.07.13-4.28,2.26-3.28-2.33-5.6-.33-7.15,2.84-1.49-4.59-4.01-11.12-8.32-5.09.34-3.46-.6-5.35-2.8-5.65-.73-1.4-2.08-2.41-3.38-3.38,1.51-1.27,1.13-3.15-1.13-5.64.57-3.47-1.7-4.06-4.66-2.47l-3.84,10.26c-1.95,6.6-10.69,7.91-16.58,6.51l-1.99,1.49-.63,1.17c1.12-10.82-6.01-4.89-8.39,1.09l-2.96.58c-.25-2.05-1.14-3-2.68-2.83.14-.69-.24-1.06-1.13-1.13.94-.47.96-.85,0-1.13-1.01-.58-2.14-.95-3.38-1.13,3.56-4.5-1.47-12.99-2.26-6.77-1.48.57-1.08,1.24,0,2.26-2.56.75-4.41,3.24-5.55,7.5.22-4.11.09-5.53-2.34-8.62,1.46-.66,1.15-1.26,0-2.26.98-.38.98-.75,0-1.13,1.68-.87,1.81-1.91,0-2.26,3.38-1.82,2.11-9.66-1.13-11.28,1.96.16.52-5.38-.61-5.52-2.32-.31-5.35,6.52-1.64,7.78l-2.92,2.85-4.25,18.67c-2.04.32-3.87,1.52-4.79,3.45-4.67-1.56-6.61,2.13-6.96,6.32-2.26-4.45-7.11-7.93-9.43-1.81-3.92-8.83-8.16-2.59-9.91,3.64-2.11-9.98-6.92-14.78-11.37-2.53l-.15-6.79c.1-4.69-2.05-5.29-6.28-5.31-.86,0-8.18,14-4.82,15.34-1.11.61-2.24.24-3.38-1.13,5.41-7.21-9.18-8.08-3.38-1.13-2.29.04-3.07,1.15-3.65,3.11-.23-2.39-.59-3.55-3.12-4.24,6.91-6.63-8.73-8.67-3.38-1.13-1.44.7-2.95.7-4.51,0,3.78-1.35.84-11.13-2.14-11.65-3.63-.64-8.1,8.28-4.63,10.52-2.28.3-3.47,2.14-3.55,5.53-.21-3.66-1.29-5.88-3.22-6.65-.45-.95-.83-.97-1.13,0l-2.7.29c-4.66,14.38-5.18,15.15-10.44.28-2.82-2.88-6.85-1.88-12.08,2.98l-4.64,2.09-4.26-13c-2.9-2.96-5.84-1.37-8.81,4.78-.79-13.67-8.94-14.54-12.68-1.2-3.35-14.21-8.04-5.85-11.55,2.59l-2.23-12.26c-.69-2.88-3.28-3.57-5.55-1.7l-7,14.1-3.13-14.66c-1.68-4.29-5.55-3.79-7.36.33l-5.55,16.37c-4.79-12.68-9.41-7.71-12.6,2.18-2.58-1.78-4.42-1.68-5.49,1.51-4.06-3.92-7.42-4.37-10.08-1.37l-2.88-3.27c-4.09-9.36-8.02-10.61-11.78-3.76-5.81-14.28-12.05-11.9-14.1,2.11-3.44-7-6.54-8.11-9.32-3.35-2.52-8.25-6.89-17.47-10.77-3.97-2.56-7.5-5.16-13.25-11.14-4.2-3.98-13.71-10.72-2.45-14.7,4.85l-2.19,1.97-4.77-13.53c-4.11-2.94-6.93.5-8.45,10.34-1.76-7.81-4.54-10.91-8.33-9.29l-5.12,22.37c-.56-3.21-1.23-6.2-4.81-4.75v153.18h1430.08v-86.64l-.57-7.14h0ZM1094.37,108.15c.03.72.25,1.51.74,2.34-.48,1.8-1.23,1.42-2.26-1.13.68-.36,1.17-.78,1.52-1.21Z"/></svg>
